<svg width="150" height="140" viewBox="0 0 150 140" fill="none" xmlns="http://www.w3.org/2000/svg">
<g clip-path="url(#clip0_25_43)">
<path d="M123.549 69.9657L103.697 79.0101L95.7191 87.0732L73.677 96.786L60.8641 58.7882L89.334 48.9475L110.779 39.9458L123.549 69.9657Z" fill="#FFF8E6"/>
<path d="M118.757 79.5363L100.568 40.0454L135.167 23.8196L150 65.5716L118.757 79.5363Z" fill="#292929"/>
<path d="M59.6041 34.6192L29.512 51.6653C27.7011 52.6911 27.0646 54.9907 28.0904 56.8017L60.15 113.398C61.1758 115.209 63.4755 115.845 65.2864 114.819L95.3785 97.773C97.1894 96.7472 97.8259 94.4476 96.8 92.6367L64.7405 36.0407C63.7146 34.2298 61.415 33.5934 59.6041 34.6192Z" fill="#292929"/>
<path d="M61.3984 37.7869L31.3063 54.833L63.492 111.652L93.5841 94.6056L61.3984 37.7869Z" fill="#CFD1D3"/>
<path d="M69.4249 87.0449C66.9643 88.3937 64.1596 88.9843 61.364 88.7425C58.5684 88.5007 55.9068 87.4372 53.7143 85.6859C51.5218 83.9347 49.8964 81.5739 49.0428 78.9008C48.1891 76.2278 48.1454 73.3619 48.9171 70.664C49.6887 67.9662 51.2413 65.5569 53.3793 63.7395C55.5174 61.9222 58.1453 60.7779 60.9322 60.4509C63.7191 60.1239 66.5405 60.6287 69.0412 61.9018C71.5418 63.1748 73.61 65.1592 74.9852 67.6052C76.8233 70.9209 77.2702 74.8306 76.2276 78.4756C75.1851 82.1206 72.7384 85.2027 69.4249 87.0449Z" fill="#292929"/>
<path d="M63.054 69.0272C65.4004 67.7047 66.9789 68.7144 68.0597 70.4493L69.4818 69.6529L70.3777 71.2172L68.9556 72.0278C69.4653 73.0106 69.8384 74.0584 70.0648 75.1421L67.9886 76.3224C67.5051 75.2843 66.5665 73.4783 66.1257 72.682C65.6849 71.8856 65.2582 71.2599 64.3623 71.8145L63.9642 72.042C63.2531 72.4402 63.1394 72.8953 63.6229 73.7627L64.3766 75.071C64.6221 75.487 64.7745 75.9512 64.8233 76.4317C64.8722 76.9123 64.8163 77.3977 64.6595 77.8545C64.5027 78.3113 64.2488 78.7288 63.9151 79.078C63.5815 79.4273 63.1761 79.7001 62.727 79.8776L62.0444 80.2616C59.2002 81.8401 57.6928 80.546 56.7827 78.9248L55.4317 79.6785L54.5216 78.2138L55.9437 77.4459C55.3812 76.4689 54.9961 75.4001 54.806 74.2889L56.8822 73.0517C57.2093 73.7343 58.0057 75.3981 58.8731 76.9197C59.2713 77.6165 59.7406 78.0716 60.4516 77.6734L60.9209 77.4032C61.5182 77.0761 61.7599 76.6922 61.3049 75.8958L60.5796 74.616C60.3044 74.1979 60.1246 73.7243 60.0528 73.229C59.981 72.7336 60.0191 72.2285 60.1643 71.7495C60.3095 71.2705 60.5582 70.8293 60.893 70.4571C61.2277 70.085 61.6402 69.791 62.1012 69.5961L63.054 69.0272Z" fill="#CFD1D3"/>
<path d="M65.5285 42.662L61.5752 35.6938L55.1901 39.3201C55.3299 39.8867 55.5452 40.4319 55.83 40.9413C56.2437 41.6723 56.7976 42.3146 57.46 42.8312C58.1223 43.3478 58.8801 43.7287 59.6899 43.9519C60.4997 44.1752 61.3456 44.2364 62.1791 44.1322C63.0126 44.028 63.8174 43.7604 64.5473 43.3446C64.8962 43.1501 65.2249 42.9215 65.5285 42.662Z" fill="#292929"/>
<path d="M95.4346 95.4635L91.5097 88.5522C91.1358 88.6808 90.7741 88.8427 90.429 89.0358C89.5674 89.5122 88.8283 90.1823 88.2699 90.9931C87.7115 91.8039 87.3491 92.7334 87.2112 93.7082C87.0733 94.683 87.1638 95.6765 87.4754 96.6104C87.787 97.5443 88.3113 98.3931 89.0069 99.0898L95.4346 95.4635Z" fill="#292929"/>
<path d="M32.0103 61.149C32.871 61.0606 33.704 60.7943 34.4563 60.3669C35.9295 59.5283 37.0107 58.1406 37.4638 56.5071C37.9168 54.8736 37.7047 53.1272 36.8738 51.6496C36.5901 51.1257 36.2307 50.6465 35.8072 50.2275L28.2703 54.4938L32.0103 61.149Z" fill="#292929"/>
<path d="M69.681 110.054C69.537 109.509 69.3268 108.984 69.0552 108.49C68.6415 107.758 68.0876 107.116 67.4253 106.6C66.7629 106.083 66.0051 105.702 65.1953 105.479C64.3855 105.256 63.5396 105.194 62.7061 105.299C61.8726 105.403 61.0678 105.67 60.3379 106.086C59.5819 106.509 58.923 107.085 58.4039 107.779L62.1155 114.334L69.681 110.054Z" fill="#292929"/>
<path d="M53.2418 58.4753C53.9492 58.0814 54.524 57.4867 54.8935 56.7662C55.2631 56.0458 55.4108 55.232 55.3179 54.4276C55.2251 53.6233 54.896 52.8645 54.3721 52.2471C53.8482 51.6298 53.153 51.1815 52.3745 50.9591C51.596 50.7367 50.769 50.75 49.998 50.9974C49.227 51.2448 48.5467 51.7151 48.043 52.349C47.5392 52.9829 47.2347 53.7519 47.1678 54.5589C47.1009 55.3658 47.2748 56.1744 47.6673 56.8826C47.927 57.355 48.2776 57.7712 48.6991 58.1073C49.1205 58.4434 49.6043 58.6927 50.1226 58.8408C50.6409 58.9889 51.1834 59.0328 51.7188 58.9701C52.2541 58.9074 52.7718 58.7392 53.2418 58.4753Z" fill="#292929"/>
<path d="M75.682 98.1229C76.3861 97.7233 76.956 97.124 77.3197 96.4007C77.6834 95.6775 77.8245 94.8626 77.7253 94.0592C77.6262 93.2557 77.2911 92.4997 76.7625 91.8865C76.2338 91.2734 75.5353 90.8307 74.7552 90.6143C73.9751 90.3979 73.1484 90.4176 72.3795 90.6709C71.6105 90.9241 70.9339 91.3996 70.435 92.0372C69.9362 92.6748 69.6375 93.4459 69.5766 94.2532C69.5158 95.0605 69.6956 95.8677 70.0933 96.5728C70.358 97.0421 70.7126 97.4545 71.1369 97.7865C71.5612 98.1185 72.0469 98.3635 72.566 98.5075C73.0852 98.6515 73.6277 98.6916 74.1623 98.6256C74.697 98.5596 75.2135 98.3888 75.682 98.1229Z" fill="#292929"/>
<path d="M80.9437 63.9931L62.3004 53.2707L59.2145 54.3088C58.6172 64.1353 49.7008 63.538 48.2219 63.3674C46.7429 63.1967 47.3971 59.5704 47.3971 59.5704L51.6633 44.9516L67.0785 40.0454C71.0603 40.8133 91.0831 48.8622 91.0831 48.8622L80.9437 63.9931Z" fill="#FFF8E6"/>
<path d="M36.9733 80.5603C35.8079 81.103 34.4746 81.1607 33.2666 80.7207C32.0586 80.2807 31.0747 79.379 30.5314 78.2139C29.8709 77.1094 29.6737 75.7886 29.9827 74.5394C30.2916 73.2901 31.0818 72.2136 32.181 71.5444L39.4477 67.7048C40.0256 67.4399 40.6501 67.2916 41.2854 67.2684C41.9206 67.2451 42.5542 67.3474 43.1499 67.5693C43.7457 67.7912 44.2918 68.1284 44.757 68.5616C45.2222 68.9948 45.5975 69.5155 45.8613 70.0938C46.5217 71.1983 46.719 72.5191 46.41 73.7683C46.101 75.0176 45.3108 76.0941 44.2117 76.7633L36.9733 80.5603Z" fill="#FFF8E6"/>
<path d="M41.979 89.5902C41.3828 89.9144 40.7284 90.1176 40.0534 90.1879C39.3784 90.2583 38.6962 90.1945 38.0459 90.0002C37.3957 89.806 36.7902 89.485 36.2645 89.0559C35.7387 88.6268 35.303 88.0979 34.9824 87.4998C34.3551 86.2796 34.2379 84.8602 34.6565 83.5536C35.0752 82.247 35.9954 81.1601 37.2151 80.5316L45.5057 76.1517C46.1052 75.8083 46.7676 75.5891 47.4535 75.5071C48.1394 75.4251 48.8348 75.482 49.4983 75.6744C50.1618 75.8668 50.7797 76.1908 51.3154 76.627C51.851 77.0633 52.2934 77.6029 52.6161 78.2137C53.2434 79.4339 53.3606 80.8532 52.942 82.1598C52.5233 83.4664 51.6031 84.5534 50.3834 85.1818L41.979 89.5902Z" fill="#FFF8E6"/>
<path d="M46.9278 98.6773C45.7486 99.2334 44.3972 99.3003 43.1689 98.8633C41.9405 98.4264 40.935 97.521 40.372 96.3451C39.7244 95.2035 39.5553 93.8519 39.9018 92.586C40.2482 91.3201 41.082 90.2429 42.2207 89.5903L49.7719 85.6085C50.9511 85.0523 52.3025 84.9854 53.5308 85.4224C54.7591 85.8594 55.7646 86.7647 56.3276 87.9406C56.9793 89.0732 57.1567 90.4175 56.821 91.6803C56.4853 92.9431 55.6639 94.0218 54.5358 94.6813L46.9278 98.6773Z" fill="#FFF8E6"/>
<path d="M52.7156 106.655C51.6459 107.089 50.4482 107.083 49.383 106.638C48.3178 106.193 47.4713 105.346 47.0274 104.28C46.419 103.304 46.2168 102.127 46.4639 101.003C46.711 99.8795 47.3879 98.8967 48.3499 98.265L54.5928 94.9658C55.6608 94.5314 56.857 94.5357 57.9219 94.9776C58.9868 95.4195 59.8345 96.2635 60.2811 97.3265C60.8992 98.2978 61.1129 99.4723 60.8764 100.599C60.6398 101.726 59.9719 102.715 59.0154 103.356L52.7156 106.655Z" fill="#FFF8E6"/>
</g>
<defs>
<clipPath id="clip0_25_43">
<rect width="150" height="139.334" fill="white" transform="translate(-0.000488281)"/>
</clipPath>
</defs>
</svg>
