<svg width="119" height="31" viewBox="0 0 119 31" fill="none" xmlns="http://www.w3.org/2000/svg">
<path d="M49.0086 0V30.283H43.0223V10.6423L34.4143 24.7023H33.7151L25.1071 10.6856V30.283H19.0771V0H25.2819L34.0647 14.3195L42.8038 0H49.0086Z" fill="#CCCCCC"/>
<path d="M49.0086 0V30.283H43.0223V10.6423L34.4143 24.7023H33.7151L25.1071 10.6856L19.0771 0H25.2819L34.0647 14.3195L42.8038 0H49.0086Z" fill="#EFEFEF"/>
<path fill-rule="evenodd" clip-rule="evenodd" d="M15.9626 0.00728113C15.793 0.00242704 15.6226 0 15.4512 0C11.0727 0 7.3958 1.47269 4.42064 4.41806C1.47355 7.36343 0 10.9618 0 15.2131C0 19.4367 1.48758 23.0211 4.46274 25.9665C7.46597 28.8841 11.2411 30.3429 15.788 30.3429C20.0543 30.3429 23.5347 29.0508 26.2291 26.4667C27.4496 25.2962 28.3937 23.9632 29.0613 22.4678L24.1742 14.0878H15.4933V19.1727H24.4188C23.8855 20.8955 22.8751 22.257 21.3875 23.2573C19.928 24.2299 18.0755 24.7161 15.8301 24.7161C12.7988 24.7161 10.3569 23.827 8.50447 22.0486C6.68008 20.2425 5.76788 17.964 5.76788 15.2131C5.76788 12.4345 6.66605 10.1421 8.46237 8.33596C10.2868 6.50205 12.6023 5.58509 15.4091 5.58509C17.0025 5.58509 18.4547 5.8996 19.7657 6.52861L15.9626 0.00728113Z" fill="#FF4539"/>
<path d="M61.203 13.6424V14.2978C61.203 15.5115 60.8114 16.4946 60.0284 17.2471C59.2453 17.9996 58.2338 18.3759 56.9939 18.3759C55.6725 18.3759 54.5753 17.9511 53.7025 17.1015C52.8378 16.2438 52.4055 15.2 52.4055 13.9701C52.4055 12.7321 52.8338 11.6843 53.6903 10.8266C54.5549 9.96889 55.6235 9.54004 56.896 9.54004C57.6954 9.54004 58.4255 9.7221 59.0862 10.0862C59.7469 10.4422 60.2608 10.9196 60.6279 11.5184L59.1841 12.3437C58.9802 11.9958 58.6702 11.7126 58.2542 11.4941C57.8463 11.2757 57.3895 11.1664 56.8838 11.1664C56.0681 11.1664 55.3951 11.4334 54.8649 11.9675C54.3428 12.4934 54.0818 13.161 54.0818 13.9701C54.0818 14.7712 54.3469 15.4347 54.8771 15.9606C55.4155 16.4784 56.1252 16.7374 57.0061 16.7374C57.6587 16.7374 58.1971 16.5958 58.6213 16.3126C59.0536 16.0213 59.3472 15.6248 59.5022 15.1231H56.9083V13.6424H61.203Z" fill="#EFEFEF"/>
<path d="M67.2738 9.70996H68.9501V18.206H67.2738V14.6862H64.0925V18.206H62.404V9.70996H64.0925V13.0841H67.2738V9.70996Z" fill="#EFEFEF"/>
<path d="M77.7481 17.1015C76.8834 17.9511 75.8311 18.3759 74.5912 18.3759C73.3514 18.3759 72.2991 17.9511 71.4344 17.1015C70.5779 16.2438 70.1497 15.196 70.1497 13.958C70.1497 12.72 70.5779 11.6762 71.4344 10.8266C72.2991 9.96889 73.3514 9.54004 74.5912 9.54004C75.8311 9.54004 76.8834 9.96889 77.7481 10.8266C78.6127 11.6762 79.045 12.72 79.045 13.958C79.045 15.196 78.6127 16.2438 77.7481 17.1015ZM72.6213 15.9606C73.1515 16.4784 73.8082 16.7374 74.5912 16.7374C75.3743 16.7374 76.031 16.4784 76.5612 15.9606C77.0914 15.4347 77.3565 14.7671 77.3565 13.958C77.3565 13.1488 77.0914 12.4813 76.5612 11.9553C76.031 11.4294 75.3743 11.1664 74.5912 11.1664C73.8082 11.1664 73.1515 11.4294 72.6213 11.9553C72.0911 12.4813 71.826 13.1488 71.826 13.958C71.826 14.7671 72.0911 15.4347 72.6213 15.9606Z" fill="#EFEFEF"/>
<path d="M82.8455 18.3759C81.9971 18.3759 81.2834 18.1898 80.7042 17.8176C80.1251 17.4373 79.7172 16.9235 79.4807 16.2762L80.9245 15.4387C81.2589 16.3045 81.9156 16.7374 82.8944 16.7374C83.3675 16.7374 83.7142 16.6524 83.9344 16.4825C84.1547 16.3126 84.2648 16.0982 84.2648 15.8392C84.2648 15.5398 84.1302 15.3092 83.861 15.1474C83.5919 14.9775 83.1106 14.7954 82.4172 14.6012C82.0338 14.488 81.7076 14.3747 81.4384 14.2614C81.1773 14.1481 80.9122 13.9984 80.643 13.8123C80.382 13.6181 80.1822 13.3754 80.0435 13.0841C79.9048 12.7928 79.8355 12.453 79.8355 12.0646C79.8355 11.2959 80.1088 10.685 80.6553 10.2319C81.21 9.77065 81.8748 9.54004 82.6497 9.54004C83.3431 9.54004 83.9508 9.70996 84.4728 10.0498C85.003 10.3815 85.415 10.8468 85.7086 11.4456L84.2893 12.2588C83.9467 11.5305 83.4002 11.1664 82.6497 11.1664C82.2989 11.1664 82.0216 11.2473 81.8177 11.4092C81.6219 11.5629 81.524 11.7652 81.524 12.016C81.524 12.283 81.6341 12.5015 81.8544 12.6714C82.0828 12.8333 82.5151 13.0113 83.1514 13.2055C83.4124 13.2864 83.6082 13.3511 83.7387 13.3997C83.8774 13.4401 84.0609 13.5089 84.2893 13.606C84.5258 13.695 84.7053 13.78 84.8277 13.8609C84.9582 13.9418 85.105 14.051 85.2681 14.1886C85.4313 14.3261 85.5536 14.4677 85.6352 14.6134C85.7249 14.759 85.7984 14.937 85.8555 15.1474C85.9207 15.3497 85.9533 15.5722 85.9533 15.815C85.9533 16.5998 85.6638 17.2229 85.0846 17.6841C84.5136 18.1453 83.7672 18.3759 82.8455 18.3759Z" fill="#EFEFEF"/>
<path d="M92.4091 9.70996V11.3121H90.0966V18.206H88.408V11.3121H86.1077V9.70996H92.4091Z" fill="#EFEFEF"/>
<path d="M61.1785 21.8471V30.3431H59.5022V24.8329L57.0918 28.7774H56.896L54.4856 24.845V30.3431H52.7971V21.8471H54.5345L56.9939 25.8645L59.4411 21.8471H61.1785Z" fill="#EFEFEF"/>
<path d="M68.2805 30.3431L67.7666 28.8139H64.3528L63.8389 30.3431H62.0158L65.0136 21.8471H67.1059L70.1158 30.3431H68.2805ZM64.8912 27.2482H67.2405L66.0658 23.7769L64.8912 27.2482Z" fill="#EFEFEF"/>
<path d="M75.646 30.3431L73.9208 27.3938H72.636V30.3431H70.9475V21.8471H74.3735C75.1647 21.8471 75.8377 22.1222 76.3924 22.6724C76.9471 23.2227 77.2244 23.8862 77.2244 24.6629C77.2244 25.1889 77.0735 25.6784 76.7717 26.1315C76.4699 26.5766 76.0702 26.9124 75.5726 27.1389L77.4691 30.3431H75.646ZM72.636 23.4128V25.9252H74.3735C74.6916 25.9252 74.9649 25.8038 75.1933 25.5611C75.4217 25.3103 75.5359 25.0109 75.5359 24.6629C75.5359 24.315 75.4217 24.0197 75.1933 23.7769C74.9649 23.5342 74.6916 23.4128 74.3735 23.4128H72.636Z" fill="#EFEFEF"/>
<path d="M85.1563 30.3431H83.2108L80.1519 26.3621V30.3431H78.4634V21.8471H80.1519V25.5975L83.0885 21.8471H85.0339L81.8649 25.9738L85.1563 30.3431Z" fill="#EFEFEF"/>
<path d="M87.6797 28.741H91.2893V30.3431H85.9912V21.8471H91.2281V23.4492H87.6797V25.2577H90.9222V26.8355H87.6797V28.741Z" fill="#EFEFEF"/>
<path d="M98.1446 21.8471V23.4492H95.8321V30.3431H94.1435V23.4492H91.8432V21.8471H98.1446Z" fill="#EFEFEF"/>
<path d="M99.0872 21.8471H100.776V30.3431H99.0872V21.8471Z" fill="#EFEFEF"/>
<path d="M107.317 21.8471H109.005V30.3431H107.72L104.05 25.1484V30.3431H102.361V21.8471H103.646L107.317 27.0297V21.8471Z" fill="#EFEFEF"/>
<path d="M119 25.7796V26.435C119 27.6487 118.608 28.6318 117.825 29.3843C117.042 30.1368 116.031 30.5131 114.791 30.5131C113.469 30.5131 112.372 30.0883 111.499 29.2387C110.635 28.381 110.203 27.3372 110.203 26.1073C110.203 24.8693 110.631 23.8214 111.487 22.9637C112.352 22.106 113.42 21.6772 114.693 21.6772C115.492 21.6772 116.222 21.8593 116.883 22.2234C117.544 22.5794 118.058 23.0568 118.425 23.6556L116.981 24.4809C116.777 24.133 116.467 23.8498 116.051 23.6313C115.643 23.4128 115.187 23.3036 114.681 23.3036C113.865 23.3036 113.192 23.5706 112.662 24.1046C112.14 24.6306 111.879 25.2981 111.879 26.1073C111.879 26.9083 112.144 27.5718 112.674 28.0978C113.212 28.6156 113.922 28.8745 114.803 28.8745C115.456 28.8745 115.994 28.7329 116.418 28.4497C116.851 28.1584 117.144 27.762 117.299 27.2603H114.705V25.7796H119Z" fill="#EFEFEF"/>
</svg>
