<svg width="20" height="20" viewBox="0 0 20 20" fill="none" xmlns="http://www.w3.org/2000/svg">
<path d="M19.6324 15.6665L15.0688 11.5171C14.8531 11.321 14.5696 11.2165 14.2782 11.2255C13.9868 11.2345 13.7104 11.3564 13.5071 11.5654L10.8206 14.3283C10.1739 14.2048 8.87389 13.7995 7.53567 12.4646C6.19745 11.1253 5.79217 9.82189 5.67204 9.17972L8.43268 6.49205C8.64196 6.28899 8.76402 6.01247 8.77303 5.72101C8.78204 5.42955 8.6773 5.14601 8.48096 4.93042L4.3327 0.36789C4.13628 0.151615 3.86328 0.0204285 3.5717 0.00219121C3.28011 -0.016046 2.9929 0.0801029 2.77106 0.270218L0.334872 2.3595C0.140775 2.5543 0.024925 2.81357 0.0092979 3.08812C-0.00754213 3.36878 -0.328625 10.0172 4.82667 15.1748C9.32408 19.6711 14.9576 20 16.5092 20C16.7359 20 16.8752 19.9933 16.9122 19.991C17.1867 19.9757 17.4458 19.8593 17.6397 19.6643L19.7279 17.227C19.9187 17.0059 20.0156 16.7189 19.9978 16.4273C19.9799 16.1358 19.8488 15.8627 19.6324 15.6665Z" fill="#EF3125"/>
</svg>
