<svg width="168" height="108" viewBox="0 0 168 108" fill="none" xmlns="http://www.w3.org/2000/svg">
<g clip-path="url(#clip0_23_29)">
<path d="M105.862 36.3688L89.0763 3.01423L153.776 26.4295L105.862 36.3688Z" fill="#8E2822"/>
<path d="M10.7901 35.1283L153.776 26.4297L154.452 60.5891L0.818848 78.1067L10.7901 35.1283Z" fill="#B92E26"/>
<path d="M162.537 47.8843L10.7978 34.9093L0.818902 78.1066L163.611 107.103L162.537 47.8843Z" fill="#EF3125"/>
<path d="M21.7361 56.3851C21.676 56.85 21.4773 57.2287 21.1401 57.5211C20.8088 57.8091 20.353 57.9629 19.7728 57.9823L19.7648 58.0443C20.3546 58.1941 20.8105 58.4658 21.1325 58.8593C21.4551 59.2477 21.5827 59.7027 21.5152 60.2244C21.451 60.7203 21.2644 61.1478 20.9554 61.5069C20.647 61.8609 20.1966 62.1151 19.6042 62.2696C19.0124 62.4188 18.262 62.4347 17.3529 62.3171L13.231 61.7838L14.3516 53.1216L18.4735 53.6549C19.1502 53.7424 19.7478 53.8932 20.2662 54.1074C20.7854 54.3163 21.1785 54.6061 21.4457 54.9768C21.7128 55.3475 21.8097 55.8169 21.7361 56.3851ZM19.0829 59.7837C19.127 59.4428 19.0244 59.1801 18.7752 58.9955C18.5318 58.8065 18.1493 58.6782 17.6276 58.6107L16.0702 58.4092L15.8056 60.4547L17.4094 60.6622C17.8536 60.7197 18.2311 60.6845 18.5417 60.5566C18.8524 60.4287 19.0327 60.1711 19.0829 59.7837ZM19.318 56.2613C19.3527 55.9927 19.2726 55.7802 19.0775 55.6236C18.8824 55.4671 18.5783 55.3621 18.1651 55.3086L16.4993 55.0931L16.2777 56.8054L17.6724 56.9859C18.1734 57.0507 18.5624 57.0275 18.8394 56.9163C19.1163 56.805 19.2759 56.5867 19.318 56.2613ZM23.2103 63.0748L24.331 54.4127L26.6941 54.7184L26.2611 58.0655L27.4 58.2128C28.2833 58.3271 28.9996 58.5143 29.5488 58.7744C30.1033 59.0352 30.4953 59.3748 30.7247 59.7931C30.9549 60.2063 31.0329 60.6995 30.9587 61.2728C30.8865 61.8307 30.6946 62.2995 30.3828 62.6793C30.0711 63.0591 29.6216 63.3266 29.0344 63.4817C28.4471 63.6368 27.7015 63.6559 26.7976 63.5389L23.2103 63.0748ZM25.7849 61.7458L26.8774 61.8871C27.3371 61.9466 27.7249 61.9127 28.0407 61.7855C28.3571 61.6531 28.5408 61.3907 28.5916 60.9981C28.635 60.6624 28.5321 60.4022 28.2829 60.2177C28.0337 60.0331 27.6431 59.9065 27.111 59.8376L26.0496 59.7003L25.7849 61.7458ZM31.857 64.1935L32.9777 55.5313L35.3408 55.837L34.2201 64.4992L31.857 64.1935ZM43.8093 56.9326L43.5797 58.7069L39.9614 58.2388L39.0703 65.1267L36.7072 64.821L37.8279 56.1588L43.8093 56.9326ZM52.7344 62.4751C52.6409 63.1983 52.4599 63.8261 52.1914 64.3585C51.9281 64.8917 51.5855 65.3279 51.1634 65.6671C50.7473 66.0019 50.2656 66.2337 49.7185 66.3625C49.1766 66.492 48.5802 66.5146 47.9294 66.4304C47.3199 66.3515 46.7722 66.1809 46.2862 65.9184C45.8054 65.6567 45.4012 65.3103 45.0736 64.8793C44.7518 64.4438 44.5237 63.9337 44.3892 63.3491C44.26 62.7652 44.2421 62.1117 44.3357 61.3886C44.46 60.4278 44.7357 59.6363 45.1628 59.0141C45.5899 58.3919 46.1409 57.9485 46.8158 57.684C47.4908 57.4194 48.2647 57.3436 49.1377 57.4565C49.9486 57.5615 50.6442 57.8274 51.2244 58.2543C51.8098 58.6819 52.2376 59.2519 52.5078 59.9644C52.7832 60.6775 52.8587 61.5144 52.7344 62.4751ZM46.7453 61.7003C46.6718 62.2685 46.6719 62.7543 46.7458 63.1577C46.8196 63.5612 46.9756 63.8781 47.2136 64.1084C47.4516 64.3388 47.7824 64.4814 48.206 64.5361C48.6244 64.5903 48.9754 64.5359 49.2591 64.373C49.5479 64.2108 49.7767 63.9437 49.9457 63.5717C50.1198 63.2003 50.2436 62.7306 50.3171 62.1624C50.3912 61.589 50.3907 61.1058 50.3155 60.7127C50.2462 60.3151 50.0922 60.0037 49.8535 59.7785C49.6148 59.5533 49.2836 59.4133 48.8601 59.3585C48.2351 59.2777 47.7528 59.4332 47.4132 59.8252C47.0789 60.2178 46.8562 60.8429 46.7453 61.7003ZM63.0319 59.4195L62.1348 66.3539L63.4054 66.5183L62.7799 71.353L60.657 71.0784L61.059 67.9714L55.2325 67.2177L54.8306 70.3246L52.7076 70.0499L53.3331 65.2152L54.0614 65.3094C54.5192 64.7752 54.9256 64.1503 55.2808 63.4348C55.6411 62.7199 55.9554 61.9544 56.2238 61.1383C56.498 60.3178 56.7271 59.4809 56.911 58.6276L63.0319 59.4195ZM60.4392 60.8881L58.6649 60.6585C58.4994 61.2883 58.3134 61.8945 58.1067 62.4769C57.9059 63.0549 57.6768 63.6082 57.4193 64.1368C57.1625 64.6603 56.8671 65.1577 56.533 65.6292L59.7716 66.0482L60.4392 60.8881ZM68.1455 60.0811L67.7145 63.4127L71.0151 63.8397L71.4461 60.5081L73.8093 60.8138L72.6886 69.476L70.3255 69.1703L70.7876 65.5985L67.487 65.1715L67.0249 68.7433L64.6617 68.4375L65.7824 59.7754L68.1455 60.0811ZM75.1679 69.7968L76.2886 61.1346L78.6517 61.4403L78.2187 64.7874L79.3576 64.9348C80.2409 65.049 80.9572 65.2362 81.5065 65.4963C82.0609 65.7571 82.4529 66.0967 82.6824 66.515C82.9125 66.9282 82.9905 67.4214 82.9163 67.9948C82.8441 68.5526 82.6522 69.0214 82.3405 69.4013C82.0287 69.7811 81.5792 70.0485 80.992 70.2036C80.4047 70.3587 79.6592 70.3778 78.7552 70.2609L75.1679 69.7968ZM77.7426 68.4677L78.835 68.609C79.2947 68.6685 79.6825 68.6346 79.9983 68.5074C80.3148 68.3751 80.4984 68.1126 80.5492 67.72C80.5926 67.3843 80.4897 67.1241 80.2405 66.9396C79.9913 66.7551 79.6007 66.6284 79.0686 66.5595L78.0072 66.4222L77.7426 68.4677ZM83.8146 70.9154L84.9353 62.2532L87.2984 62.5589L86.1777 71.2211L83.8146 70.9154ZM92.0711 63.1764L91.6281 66.601C91.6054 66.7766 91.5689 66.9977 91.5186 67.2643C91.4742 67.5264 91.424 67.793 91.3679 68.0641C91.3118 68.3352 91.2594 68.5778 91.2107 68.7921C91.162 69.0064 91.1274 69.1516 91.1071 69.2277L95.8908 63.6706L98.7343 64.0384L97.6137 72.7006L95.328 72.4049L95.7751 68.9494C95.8119 68.6653 95.8626 68.3541 95.9274 68.0159C95.9928 67.6725 96.0582 67.3501 96.1234 67.0487C96.1887 66.7472 96.2365 66.5197 96.2669 66.3661L91.5006 71.9098L88.6648 71.5429L89.7855 62.8807L92.0711 63.1764ZM98.5657 60.2275C98.438 60.7677 98.2206 61.2306 97.9133 61.6162C97.6061 62.0019 97.1689 62.2762 96.6016 62.4391C96.0343 62.602 95.2962 62.6247 94.3871 62.5071C93.4522 62.3861 92.7382 62.1809 92.2453 61.8913C91.753 61.5965 91.4225 61.2281 91.2539 60.7862C91.0859 60.339 91.0154 59.8284 91.0424 59.2542L93.1576 59.5278C93.1286 60.1175 93.2257 60.524 93.4489 60.7472C93.6728 60.9652 94.0585 61.1096 94.606 61.1805C95.0605 61.2393 95.4458 61.1841 95.7618 61.0149C96.0778 60.8457 96.2996 60.491 96.4272 59.9508L98.5657 60.2275Z" fill="white"/>
<path d="M121.017 56.4732C123.523 56.6986 125.337 57.8031 126.461 59.7867C127.586 61.7548 127.996 64.4352 127.691 67.8277C127.387 71.2047 126.527 73.7865 125.111 75.5731C123.711 77.3611 121.704 78.1375 119.089 77.9023C116.646 77.6825 114.872 76.5659 113.767 74.5526C112.661 72.5392 112.261 69.844 112.564 66.467C112.869 63.0745 113.705 60.5061 115.069 58.762C116.451 57.0038 118.434 56.2408 121.017 56.4732ZM120.696 60.3036C119.685 60.2126 118.886 60.7134 118.302 61.8061C117.733 62.9001 117.345 64.5987 117.137 66.9019C116.932 69.1896 117.01 70.938 117.372 72.1471C117.75 73.3421 118.446 73.9851 119.457 74.0761C120.484 74.1685 121.299 73.6613 121.9 72.5545C122.517 71.4491 122.93 69.7448 123.137 67.4416C123.342 65.1539 123.247 63.4197 122.852 62.2389C122.457 61.0425 121.739 60.3974 120.696 60.3036ZM143.896 59.0254L121.895 91.4503L117.39 91.045L139.391 58.6202L143.896 59.0254ZM142.082 72.1343C144.587 72.3597 146.402 73.4642 147.525 75.4479C148.666 77.4174 149.084 80.0984 148.778 83.4909C148.476 86.8524 147.617 89.4264 146.201 91.213C144.801 93.001 142.786 93.7767 140.156 93.5401C137.713 93.3203 135.938 92.2037 134.833 90.1904C133.728 88.177 133.326 85.4896 133.629 82.1282C133.934 78.7356 134.769 76.1673 136.134 74.4232C137.516 72.6649 139.498 71.902 142.082 72.1343ZM141.76 75.9647C140.749 75.8737 139.951 76.3746 139.366 77.4672C138.797 78.5612 138.409 80.2599 138.202 82.5631C137.996 84.8507 138.074 86.5991 138.436 87.8083C138.815 89.0033 139.51 89.6463 140.522 89.7372C141.564 89.831 142.386 89.3323 142.986 88.2411C143.587 87.1343 143.993 85.4215 144.201 83.1027C144.407 80.8151 144.312 79.0808 143.916 77.9C143.522 76.7036 142.803 76.0585 141.76 75.9647Z" fill="white"/>
</g>
<defs>
<clipPath id="clip0_23_29">
<rect width="163.712" height="101.398" fill="white" transform="matrix(0.999379 0.0352329 0.0352329 -0.999379 0 101.335)"/>
</clipPath>
</defs>
</svg>
