<svg width="153" height="150" viewBox="0 0 153 150" fill="none" xmlns="http://www.w3.org/2000/svg">
<g clip-path="url(#clip0_25_63)">
<path d="M119.468 30.7306L16.925 50.9418C15.2576 51.2704 14.1723 52.8886 14.5009 54.5559L27.6839 121.441C28.0126 123.109 29.6307 124.194 31.2981 123.865L133.841 103.654C135.509 103.325 136.594 101.707 136.265 100.04L123.082 33.1547C122.754 31.4873 121.136 30.402 119.468 30.7306Z" fill="#CFD1D3"/>
<path d="M118.187 39.6969V39.406L21.188 58.5119L21.2952 59.0172L28.9498 57.4862L30.4807 65.1408L22.8261 66.6718L22.9179 67.177L30.5726 65.6461L32.1035 73.3007L24.4489 74.8316L24.556 75.3368L32.2106 73.8059L33.7416 81.4605L26.0869 82.9914L26.1941 83.5119L33.8487 81.981L35.3797 89.6356L27.725 91.1666L27.8169 91.6871L35.4715 90.1562L37.0024 97.8108L29.3478 99.3417L29.455 99.8622L37.1096 98.3313L38.6405 105.986L30.9859 107.517L31.0778 108.037L38.7324 106.506L40.2633 114.039L40.7685 113.947L39.2376 106.415L46.8922 104.884L48.4231 112.416L48.9283 112.309L47.3974 104.776L55.052 103.246L56.583 110.778L57.0882 110.686L55.5572 103.154L63.2119 101.623L64.7428 109.155L65.2633 109.048L63.7324 101.516L71.387 99.9847L72.9179 107.517L73.4231 107.41L71.8922 99.8775L79.5468 98.3466L81.0778 105.879L81.139 105.634L79.6081 98.0864L87.2627 96.5554L88.7936 104.088L89.2988 103.98L87.722 96.4483L95.3766 94.9173L96.9075 102.449L97.428 102.358L95.8359 94.9173L103.49 93.3864L105.021 100.919L105.527 100.811L103.996 93.2792L111.65 91.7483L113.181 99.2958L113.686 99.1886L112.156 91.6565L119.81 90.1255L121.341 97.6577L121.846 97.5658L120.315 90.0184L127.71 88.4874L129.241 96.0196L129.761 95.9277L118.432 39.651L118.187 39.6969ZM65.0949 67.2535L72.7495 65.7226L74.2805 73.3772L66.6258 74.9081L65.0949 67.2535ZM66.09 74.9081L58.4354 76.4391L56.9045 68.7845L64.5591 67.2535L66.09 74.9081ZM73.2088 65.6154L80.8634 64.0845L82.3944 71.7391L74.7397 73.2701L73.2088 65.6154ZM81.3227 64.0845L88.9773 62.5536L90.5083 70.2082L82.8536 71.7391L81.3227 64.0845ZM89.4366 62.477L97.0912 60.9461L98.6222 68.6007L90.9675 70.1317L89.4366 62.477ZM97.5505 60.9461L105.205 59.4152L106.736 67.0698L99.0814 68.6007L97.5505 60.9461ZM97.4434 60.4256L95.9124 52.771L103.567 51.2401L105.098 58.8947L97.4434 60.4256ZM96.9381 60.5328L89.2835 62.0637L87.7526 54.4091L95.4072 52.8781L96.9381 60.5328ZM88.8242 62.0637L81.1696 63.5946L79.6387 55.94L87.2933 54.4091L88.8242 62.0637ZM80.7103 63.5946L73.0557 65.1255L71.5248 57.4709L79.1794 55.94L80.7103 63.5946ZM72.5964 65.1255L64.9418 66.6565L63.4109 59.0018L71.0655 57.4709L72.5964 65.1255ZM64.4825 66.6565L56.8279 68.1874L55.297 60.5328L62.9516 59.0018L64.4825 66.6565ZM56.3686 68.2639L48.714 69.7949L47.1831 62.1402L54.8377 60.6093L56.3686 68.2639ZM56.4758 68.7691L58.0067 76.4238L50.3521 77.9547L48.8212 70.3001L56.4758 68.7691ZM58.0067 76.883L59.5377 84.5377L51.883 86.0686L50.3521 78.414L58.0067 76.883ZM58.5272 76.7912L66.1819 75.2603L67.7128 82.9149L60.0582 84.4458L58.5272 76.7912ZM66.6411 75.1837L74.2958 73.6528L75.8267 81.3074L68.1721 82.8383L66.6411 75.1837ZM74.755 73.6528L82.4097 72.1219L83.9406 79.7765L76.286 81.3074L74.755 73.6528ZM82.8536 72.1219L90.5083 70.5909L92.0392 78.2456L84.3846 79.7765L82.8536 72.1219ZM90.9675 70.5909L98.6222 69.06L100.153 76.7146L92.4985 78.2456L90.9675 70.5909ZM99.0814 69.06L106.736 67.5291L108.267 75.1837L100.612 76.7146L99.0814 69.06ZM107.195 67.5291L114.85 65.9982L116.381 73.6528L108.726 75.1837L107.195 67.5291ZM107.165 66.8555L105.634 59.2009L113.288 57.6699L114.819 65.3246L107.165 66.8555ZM105.634 58.7416L104.103 51.087L111.757 49.556L113.288 57.2107L105.634 58.7416ZM104.103 50.6277L102.572 42.9731L110.227 41.4421L111.757 49.0968L104.103 50.6277ZM103.582 50.7348L95.9277 52.2658L94.3968 44.6111L102.051 43.0802L103.582 50.7348ZM95.4685 52.2658L87.8138 53.7967L86.2829 46.1421L93.9375 44.6111L95.4685 52.2658ZM87.3699 53.7967L79.7152 55.3276L78.1843 47.673L85.8389 46.1421L87.3699 53.7967ZM79.256 55.4042L71.6013 56.9351L70.0704 49.2805L77.725 47.7495L79.256 55.4042ZM71.1421 56.9351L63.4874 58.466L61.9565 50.8114L69.6111 49.2805L71.1421 56.9351ZM63.0282 58.466L55.3735 59.9969L53.8426 52.3423L61.4972 50.8114L63.0282 58.466ZM54.9143 59.9969L47.2596 61.5279L45.7287 53.8732L53.3833 52.3423L54.9143 59.9969ZM46.8004 61.5279L39.1457 63.0588L37.6148 55.4042L45.2694 53.8732L46.8004 61.5279ZM46.9075 62.0484L48.4384 69.703L40.7838 71.2339L39.2529 63.5793L46.9075 62.0484ZM48.4384 70.1623L49.9694 77.8169L42.3147 79.3478L40.7838 71.6932L48.4384 70.1623ZM49.9694 78.2762L51.5003 85.9308L43.8457 87.4617L42.3147 79.8071L49.9694 78.2762ZM51.5003 86.3901L53.0312 94.0447L45.3766 95.5756L43.8457 87.921L51.5003 86.3901ZM52.0055 86.2829L59.6601 84.752L61.1911 92.4066L53.5364 93.9375L52.0055 86.2829ZM60.1194 84.752L67.774 83.2211L69.305 90.8757L61.6503 92.4066L60.1194 84.752ZM68.2333 83.2211L75.8879 81.6901L77.4188 89.3448L69.7642 90.8757L68.2333 83.2211ZM76.3472 81.6901L84.0018 80.1592L85.5328 87.8138L77.8781 89.3448L76.3472 81.6901ZM84.4611 80.1592L92.1157 78.6283L93.6467 86.2829L85.992 87.8138L84.4611 80.1592ZM92.575 78.6283L100.23 77.0974L101.761 84.752L94.1059 86.2829L92.575 78.6283ZM100.689 77.0974L108.344 75.5664L109.874 83.2211L102.22 84.752L100.689 77.0974ZM108.849 75.4746L116.503 73.9437L118.034 81.5983L110.38 83.1292L108.849 75.4746ZM116.963 73.9437L124.357 72.4893L125.888 80.1439L118.494 81.5983L116.963 73.9437ZM116.871 73.4232L115.34 65.7685L122.734 64.2376L124.265 71.8922L116.871 73.4232ZM115.34 65.3093L113.809 57.6546L121.203 56.2002L122.734 63.8549L115.34 65.3093ZM113.809 57.1954L112.278 49.5407L119.672 48.0863L121.203 55.741L113.809 57.1954ZM112.278 49.0968L110.747 41.4421L118.141 39.9878L119.672 47.6424L112.278 49.0968ZM29.6081 57.4709L37.2627 55.94L38.7936 63.5946L31.139 65.1255L29.6081 57.4709ZM31.139 65.5848L38.7936 64.0539L40.3245 71.7085L32.6699 73.2394L31.139 65.5848ZM32.6699 73.6987L40.3245 72.1678L41.8555 79.8224L34.2008 81.3533L32.6699 73.6987ZM34.2008 81.8126L41.8555 80.2817L43.3864 87.9363L35.7318 89.4672L34.2008 81.8126ZM35.8083 89.9265L43.4629 88.3956L44.9939 96.0502L37.3392 97.5811L35.8083 89.9265ZM38.8702 105.634L37.3392 97.9792L44.9939 96.4483L46.5248 104.103L38.8702 105.634ZM46.9841 104.103L45.4531 96.4483L53.1078 94.9173L54.6387 102.572L46.9841 104.103ZM55.098 102.572L53.567 94.9173L61.2217 93.3864L62.7526 101.041L55.098 102.572ZM63.2119 101.041L61.6809 93.3864L69.3356 91.8555L70.8665 99.5101L63.2119 101.041ZM71.3105 99.5101L69.7795 91.8555L77.4342 90.3246L78.9651 97.9792L71.3105 99.5101ZM79.4244 97.9026L77.8934 90.248L85.5481 88.7171L87.079 96.3717L79.4244 97.9026ZM87.5383 96.3717L86.0073 88.7171L93.662 87.1862L95.1929 94.8408L87.5383 96.3717ZM95.6522 94.7642L94.1212 87.1096L101.776 85.5787L103.307 93.2333L95.6522 94.7642ZM103.766 93.2333L102.235 85.5787L109.89 84.0478L111.421 91.7024L103.766 93.2333ZM111.88 91.7024L110.349 84.0478L118.004 82.5168L119.535 90.1715L111.88 91.7024ZM119.994 90.1715L118.463 82.5168L125.857 80.9859L127.388 88.6405L119.994 90.1715Z" fill="#FFF8E6"/>
<path d="M32.6087 115.11L21.4482 58.4661L20.9277 58.5579L32.0882 115.202L32.1494 115.462L32.1953 115.723L129.623 96.5248L129.516 96.0043L32.6087 115.11Z" fill="#F85B30"/>
<path d="M32.9456 115.432C32.8551 115.455 32.7605 115.455 32.67 115.432C32.5394 115.384 32.4327 115.286 32.3727 115.16C32.3127 115.035 32.304 114.89 32.3485 114.758L35.9615 104.21C35.9946 104.131 36.0457 104.061 36.1108 104.005C36.1759 103.949 36.2531 103.909 36.3364 103.888C36.4197 103.867 36.5066 103.866 36.5904 103.885C36.6741 103.904 36.7524 103.942 36.8188 103.996L40.5543 107.486L44.8409 93.0651C44.868 92.9751 44.9213 92.8952 44.994 92.8355L52.2199 85.9769C52.3065 85.9135 52.4111 85.8793 52.5184 85.8793C52.6258 85.8793 52.7304 85.9135 52.817 85.9769L63.2273 91.6261L65.5083 81.1392C65.5251 81.0552 65.5636 80.9771 65.6201 80.9126C65.6765 80.8481 65.7488 80.7996 65.8298 80.7718C65.906 80.734 65.9898 80.7144 66.0748 80.7144C66.1598 80.7144 66.2436 80.734 66.3197 80.7718L70.9125 84.0327L75.5053 69.1368C75.5325 69.0522 75.5804 68.9758 75.6445 68.9143C75.7087 68.8528 75.7871 68.8083 75.8727 68.7847C75.9629 68.7628 76.0573 68.7655 76.1462 68.7924C76.235 68.8193 76.315 68.8695 76.3779 68.9377L84.599 77.4038L86.6504 69.4736C86.669 69.3871 86.7115 69.3076 86.7729 69.2439L91.8556 64.1613C91.9093 64.1022 91.9759 64.0563 92.0502 64.0271C92.1246 63.9979 92.2046 63.9862 92.2842 63.9929L102.649 65.187L109.4 49.1429C109.425 49.0779 109.463 49.0185 109.512 48.9685C109.56 48.9184 109.619 48.8787 109.683 48.8515C109.747 48.8244 109.816 48.8105 109.886 48.8105C109.956 48.8106 110.025 48.8247 110.089 48.852C110.215 48.9091 110.314 49.0127 110.365 49.1411C110.417 49.2695 110.416 49.4127 110.364 49.5409L103.399 65.9525C103.356 66.0555 103.28 66.1415 103.183 66.1969C103.086 66.2523 102.974 66.274 102.863 66.2586L92.3761 65.0645L87.6455 69.9482L85.3951 78.6438C85.3686 78.7322 85.3198 78.8122 85.2534 78.8762C85.187 78.9402 85.1052 78.986 85.0159 79.0091C84.9266 79.0322 84.8328 79.0318 84.7437 79.008C84.6546 78.9843 84.5731 78.9379 84.5071 78.8735L76.2554 70.4227L71.7698 85.1502C71.7415 85.2275 71.6967 85.2976 71.6385 85.3558C71.5804 85.4139 71.5103 85.4587 71.433 85.487C71.3534 85.5121 71.2691 85.5183 71.1867 85.505C71.1043 85.4917 71.0261 85.4593 70.9584 85.4105L66.3657 82.2109L64.1152 92.4834C64.1 92.5636 64.0656 92.6389 64.0149 92.7029C63.9643 92.7668 63.8989 92.8176 63.8243 92.8508C63.7499 92.8851 63.669 92.9029 63.587 92.9029C63.5051 92.9029 63.4241 92.8851 63.3497 92.8508L52.6333 87.0333L45.7747 93.555L41.335 108.573C41.3065 108.659 41.2584 108.737 41.1946 108.8C41.1309 108.864 41.0532 108.912 40.9676 108.941C40.8824 108.965 40.7923 108.967 40.7063 108.945C40.6203 108.924 40.5415 108.88 40.4777 108.818L36.7423 105.297L33.3742 115.095C33.3395 115.184 33.2813 115.263 33.2059 115.322C33.1305 115.381 33.0406 115.419 32.9456 115.432Z" fill="#F85B30"/>
<path d="M112.401 51.4084L111.635 45.1929L106.644 48.9589L112.401 51.4084Z" fill="#F85B30"/>
<path d="M120.423 79.2101L134.63 76.6382L141.427 112.982L125.214 121.295L119.764 106.736L112.538 98.8213L121.464 84.354L120.423 79.2101Z" fill="#FFF8E6"/>
<path d="M120.423 79.2101L134.63 76.6382L137.446 103.001C136.172 102.704 134.853 102.647 133.558 102.832C130.944 102.824 128.333 103.024 125.75 103.429C122.857 103.919 121.892 103.628 119.029 103.904L113.87 98.7141L114.529 85.5788L122.765 83.0681L120.423 79.2101Z" fill="#FFF8E6"/>
<path d="M134.63 76.6383L118.356 64.9267L107.272 64.1306C107.272 64.1306 98.0864 66.5648 96.2646 67.7742C95.3766 68.3866 94.8255 71.0198 98.316 71.9077C100.459 72.4588 104.976 70.2696 104.976 70.2696L110.946 71.8006L117.07 76.3933L121.127 82.9151L132.67 80.0216L134.63 76.6383Z" fill="#FFF8E6"/>
<path d="M116.794 111.834L144.55 103.904L152.465 128.077L125.674 141.825L116.794 111.834Z" fill="#292929"/>
<path d="M131.609 78.792L130.319 83.7964L132.457 84.3475L133.747 79.3431L131.609 78.792Z" fill="#18627D"/>
<path d="M91.9584 68.9621L90.6536 73.9536L118.351 81.1941L119.656 76.2026L91.9584 68.9621Z" fill="#FDB813"/>
<path d="M91.9584 68.9621L90.6536 73.9536L118.351 81.1941L119.656 76.2026L91.9584 68.9621Z" fill="#FDB813"/>
<path d="M105.144 71.678L103.491 78.0313L103.184 77.2199L104.486 72.2291L105.144 71.678Z" fill="#18627D"/>
<path d="M105.146 71.6761L103.485 78.0303L131.182 85.2708L132.843 78.9166L105.146 71.6761Z" fill="#F85B30"/>
<path d="M90.6614 73.9438L86.4208 70.1777L91.9627 68.9683L90.6614 73.9438Z" fill="#18627D"/>
<path d="M126.225 84.5837L125.704 84.4612L118.953 82.67H118.601C118.1 82.5446 117.586 82.4778 117.07 82.471C115.876 82.471 114.574 83.4202 115.172 84.2316C115.769 85.043 116.702 83.8182 117.774 84.2316L118.524 84.4306L125.276 86.1911L126.684 86.5586C126.782 86.5839 126.883 86.5897 126.983 86.5757C127.083 86.5617 127.179 86.5281 127.265 86.4769C127.352 86.4257 127.428 86.3579 127.488 86.2773C127.549 86.1967 127.593 86.105 127.618 86.0074V85.8697L129.623 78.215L127.985 77.7864L126.225 84.5837Z" fill="#18627D"/>
<path d="M102.572 87.9669C102.572 87.9669 97.7036 79.6081 96.831 78.0771C94.9479 74.7857 97.428 72.6117 100.107 73.8212C101.378 74.3876 106.231 81.0778 106.231 81.0778L112.462 85.6705L116.442 85.0122L126.516 104.516L118.968 105.802L102.572 87.9669Z" fill="#FFF8E6"/>
</g>
<defs>
<clipPath id="clip0_25_63">
<rect width="152.465" height="150" fill="white"/>
</clipPath>
</defs>
</svg>
