<svg width="152" height="150" viewBox="0 0 152 150" fill="none" xmlns="http://www.w3.org/2000/svg">
<path d="M53.9345 77.2351L35.4562 89.8346L27.4342 94.2131L39.207 116.029L44.2744 113.533L46.0656 112.569L54.3785 112.477L63.4262 107.854L53.9345 77.2351Z" fill="#FFF8E6"/>
<path d="M29.6387 91.2278L0 101.852L20.6062 129.669L42.1464 119.244L29.6387 91.2278Z" fill="#292929"/>
<path d="M87.4771 30.5112L39.9572 39.8346L57.1494 127.465L122.857 114.574L109.231 45.1316L87.4771 30.5112Z" fill="#CFD1D3"/>
<path d="M91.0441 48.6986L109.231 45.1316L87.4771 30.5112L91.0441 48.6986Z" fill="#292929"/>
<path d="M114.41 93.6097L57.0374 104.866L58.066 110.109L115.438 98.8527L114.41 93.6097Z" fill="#292929"/>
<path d="M112.379 83.1896L55.0071 94.4456L56.0357 99.6885L113.408 88.4325L112.379 83.1896Z" fill="#292929"/>
<path d="M110.319 72.7569L52.9465 84.0129L53.9752 89.2559L111.347 77.9999L110.319 72.7569Z" fill="#292929"/>
<path d="M108.172 61.8038L50.8 73.0598L51.8287 78.3028L109.201 67.0468L108.172 61.8038Z" fill="#292929"/>
<path d="M87.5389 55.0239L48.7499 62.634L49.7785 67.877L88.5675 60.2669L87.5389 55.0239Z" fill="#292929"/>
<path d="M39.9418 69.3508L52.9393 60.1653C52.9393 60.1653 54.7611 58.4813 55.6797 59.9203C56.4197 61.4795 56.5587 63.2569 56.0701 64.9122C55.5814 66.5674 54.4994 67.9843 53.0312 68.8916C51.638 69.8407 47.4586 73.4843 47.4586 73.4843C47.4586 73.4843 48.5915 82.6699 46.6932 87.5076L33.6803 90.8756L35.3643 81.8891C35.3643 81.8891 39.3753 70.8818 39.9418 69.3508Z" fill="#FFF8E6"/>
</svg>
