<svg width="481" height="223" viewBox="0 0 481 223" fill="none" xmlns="http://www.w3.org/2000/svg">
<g clip-path="url(#clip0_81_4)">
<path d="M246 131.522H229.714L205.725 117.948C204.351 117.195 202.816 116.769 201.243 116.705C199.67 116.641 198.103 116.941 196.671 117.581L161.119 137.702H144.833V148.577C144.972 149.147 145.24 149.678 145.618 150.132C145.996 150.586 146.474 150.949 147.016 151.196L185.059 172.738C186.433 173.492 187.969 173.918 189.542 173.982C191.115 174.046 192.681 173.745 194.114 173.106L244.485 144.617C244.938 144.428 245.329 144.122 245.616 143.73C245.903 143.339 246.076 142.878 246.114 142.397V142.397L246 131.522Z" fill="#D4D4D4"/>
<path d="M244.485 134.077L194.114 162.582C192.68 163.218 191.114 163.516 189.542 163.452C187.97 163.389 186.434 162.965 185.059 162.215L146.983 140.657C144.312 139.06 144.019 136.84 146.348 135.531L196.671 107.042C198.111 106.418 199.68 106.133 201.252 106.211C202.825 106.288 204.357 106.726 205.726 107.489L243.785 129.047C246.472 130.484 246.749 132.768 244.485 134.077Z" fill="#C0C0C0"/>
<path d="M190.173 162.055C191.3 162.1 192.421 161.864 193.43 161.368L243.753 132.864C244.078 132.688 244.599 132.321 244.599 131.858C244.599 131.394 244.209 130.804 243.101 130.261L205.009 108.623C203.659 107.886 202.141 107.496 200.596 107.489C199.467 107.447 198.345 107.689 197.338 108.191L147.065 136.744C146.739 136.92 146.201 137.303 146.201 137.766C146.201 138.229 146.592 138.82 147.7 139.363L185.857 161.001C187.209 161.71 188.721 162.072 190.254 162.055H190.173Z" fill="#444444"/>
<path d="M197.387 110.076C198.394 109.573 199.515 109.331 200.644 109.373C202.184 109.361 203.702 109.729 205.058 110.443L243.117 132.001C243.458 132.187 243.776 132.412 244.062 132.672C244.212 132.587 244.34 132.47 244.436 132.328C244.532 132.187 244.594 132.026 244.616 131.858C244.616 131.458 244.225 130.804 243.117 130.261L205.009 108.623C203.659 107.886 202.141 107.496 200.596 107.489C199.467 107.447 198.345 107.689 197.338 108.191L147.065 136.744C146.739 136.92 146.201 137.303 146.201 137.766C146.252 138.157 146.456 138.512 146.771 138.756L147.065 138.565L197.387 110.076Z" fill="#929493"/>
<path d="M210.67 117.26C210.793 115.209 209.197 113.448 207.105 113.327C205.013 113.206 203.217 114.771 203.094 116.823C202.97 118.874 204.566 120.635 206.658 120.756C208.751 120.877 210.546 119.311 210.67 117.26Z" fill="#EFD3BF"/>
<path d="M204.064 114.579C203.867 115.022 203.767 115.501 203.771 115.984C203.766 116.739 203.996 117.477 204.43 118.1C204.865 118.723 205.483 119.201 206.202 119.47C206.921 119.739 207.706 119.787 208.454 119.606C209.201 119.426 209.874 119.025 210.383 118.459C210.047 119.25 209.443 119.902 208.673 120.306C207.904 120.71 207.015 120.842 206.158 120.679C205.301 120.515 204.528 120.067 203.968 119.41C203.409 118.753 203.098 117.926 203.087 117.07C203.083 116.149 203.432 115.26 204.064 114.579V114.579Z" fill="#DDB69B"/>
<path d="M205.612 115.984C205.612 116.363 205.726 116.734 205.941 117.049C206.156 117.364 206.461 117.61 206.818 117.755C207.175 117.9 207.568 117.938 207.947 117.864C208.326 117.79 208.674 117.607 208.948 117.339C209.221 117.071 209.407 116.73 209.483 116.358C209.558 115.986 209.519 115.601 209.371 115.251C209.223 114.901 208.973 114.602 208.652 114.391C208.33 114.18 207.952 114.068 207.566 114.068C207.309 114.068 207.055 114.118 206.818 114.214C206.581 114.31 206.365 114.451 206.184 114.629C206.002 114.807 205.859 115.018 205.76 115.251C205.662 115.483 205.612 115.733 205.612 115.984V115.984Z" fill="#FFE5D4"/>
<path d="M196.068 117.901C196.065 118.637 196.285 119.358 196.7 119.972C197.115 120.586 197.706 121.065 198.399 121.35C199.092 121.634 199.856 121.71 200.593 121.568C201.33 121.426 202.008 121.073 202.54 120.553C203.072 120.034 203.435 119.371 203.583 118.648C203.731 117.926 203.657 117.177 203.37 116.496C203.083 115.816 202.597 115.234 201.973 114.824C201.348 114.414 200.614 114.196 199.863 114.196C198.859 114.196 197.896 114.586 197.185 115.28C196.474 115.974 196.072 116.917 196.068 117.901V117.901Z" fill="#EFD3BF"/>
<path d="M197.045 115.473C196.811 116.034 196.72 116.642 196.781 117.245C196.843 117.848 197.054 118.427 197.396 118.931C197.738 119.436 198.202 119.85 198.745 120.138C199.289 120.426 199.896 120.579 200.514 120.583C201.048 120.582 201.576 120.469 202.062 120.252C202.548 120.034 202.981 119.717 203.332 119.322C202.994 120.114 202.387 120.768 201.614 121.172C200.841 121.575 199.95 121.705 199.091 121.537C198.232 121.37 197.458 120.916 196.901 120.254C196.344 119.591 196.039 118.759 196.036 117.901C196.056 116.997 196.416 116.133 197.045 115.473Z" fill="#DDB69B"/>
<path d="M198.592 116.863C198.592 117.242 198.707 117.612 198.922 117.927C199.137 118.242 199.442 118.488 199.799 118.633C200.156 118.778 200.549 118.816 200.928 118.742C201.307 118.668 201.655 118.486 201.929 118.218C202.202 117.95 202.388 117.608 202.463 117.236C202.539 116.865 202.5 116.479 202.352 116.129C202.204 115.779 201.954 115.48 201.632 115.269C201.311 115.059 200.933 114.946 200.547 114.946C200.028 114.946 199.531 115.148 199.165 115.508C198.798 115.867 198.592 116.354 198.592 116.863V116.863Z" fill="#FFE5D4"/>
<path d="M191.59 122.707C191.59 123.443 191.812 124.163 192.229 124.774C192.646 125.386 193.239 125.863 193.932 126.145C194.625 126.426 195.388 126.5 196.124 126.357C196.861 126.213 197.537 125.859 198.067 125.338C198.598 124.818 198.959 124.155 199.106 123.433C199.252 122.711 199.177 121.963 198.89 121.283C198.603 120.603 198.116 120.022 197.492 119.614C196.868 119.205 196.135 118.986 195.384 118.986C194.378 118.986 193.413 119.378 192.701 120.076C191.989 120.774 191.59 121.72 191.59 122.707V122.707Z" fill="#EFD3BF"/>
<path d="M192.567 120.264C192.381 120.716 192.287 121.198 192.29 121.685C192.29 122.172 192.388 122.654 192.577 123.103C192.767 123.553 193.046 123.961 193.397 124.305C193.747 124.649 194.164 124.922 194.622 125.108C195.081 125.294 195.572 125.39 196.068 125.39C196.603 125.39 197.131 125.277 197.617 125.06C198.103 124.842 198.536 124.524 198.886 124.129C198.548 124.921 197.941 125.575 197.168 125.978C196.395 126.382 195.504 126.511 194.645 126.344C193.786 126.177 193.012 125.723 192.455 125.06C191.898 124.397 191.593 123.566 191.59 122.707C191.597 121.803 191.945 120.933 192.567 120.264Z" fill="#DDB69B"/>
<path d="M194.114 121.669C194.114 122.177 194.32 122.665 194.686 123.024C195.053 123.384 195.55 123.586 196.068 123.586C196.586 123.586 197.084 123.384 197.45 123.024C197.817 122.665 198.022 122.177 198.022 121.669C198.022 121.161 197.817 120.674 197.45 120.314C197.084 119.955 196.586 119.753 196.068 119.753C195.55 119.753 195.053 119.955 194.686 120.314C194.32 120.674 194.114 121.161 194.114 121.669V121.669Z" fill="#FFE5D4"/>
<path d="M186.541 127.051C186.541 127.787 186.764 128.506 187.181 129.118C187.597 129.73 188.19 130.207 188.883 130.488C189.577 130.77 190.34 130.844 191.076 130.7C191.812 130.557 192.488 130.202 193.019 129.682C193.549 129.162 193.911 128.499 194.057 127.777C194.204 127.055 194.128 126.307 193.841 125.627C193.554 124.947 193.068 124.366 192.444 123.957C191.82 123.548 191.086 123.33 190.336 123.33C189.329 123.33 188.364 123.722 187.652 124.42C186.941 125.118 186.541 126.064 186.541 127.051V127.051Z" fill="#EFD3BF"/>
<path d="M187.486 124.592C187.287 125.04 187.187 125.524 187.192 126.013C187.191 126.766 187.423 127.502 187.859 128.123C188.294 128.743 188.912 129.219 189.631 129.486C190.349 129.753 191.133 129.799 191.879 129.618C192.625 129.437 193.296 129.037 193.804 128.472C193.467 129.265 192.86 129.918 192.087 130.322C191.314 130.726 190.423 130.855 189.564 130.688C188.705 130.52 187.931 130.067 187.374 129.404C186.817 128.741 186.511 127.91 186.508 127.051C186.512 126.141 186.86 125.264 187.486 124.592Z" fill="#DDB69B"/>
<path d="M191.082 127.925C192.16 127.89 193.006 127.004 192.97 125.946C192.934 124.888 192.03 124.059 190.951 124.094C189.873 124.13 189.027 125.016 189.063 126.074C189.099 127.131 190.003 127.96 191.082 127.925Z" fill="#FFE5D4"/>
<path d="M183.015 132.189C185.106 132.044 186.68 130.265 186.532 128.215C186.384 126.165 184.57 124.621 182.479 124.766C180.389 124.911 178.814 126.691 178.962 128.74C179.11 130.79 180.925 132.334 183.015 132.189Z" fill="#EFD3BF"/>
<path d="M179.929 126.013C179.686 126.577 179.589 127.191 179.649 127.8C179.708 128.409 179.921 128.995 180.268 129.503C180.615 130.012 181.086 130.427 181.638 130.713C182.19 130.999 182.806 131.145 183.43 131.139C183.967 131.133 184.496 131.014 184.982 130.791C185.468 130.568 185.9 130.246 186.248 129.846C185.91 130.638 185.304 131.292 184.531 131.695C183.758 132.099 182.866 132.228 182.007 132.061C181.148 131.894 180.374 131.44 179.818 130.777C179.261 130.114 178.955 129.283 178.952 128.424C178.968 127.531 179.315 126.673 179.929 126.013V126.013Z" fill="#DDB69B"/>
<path d="M181.476 127.418C181.473 127.798 181.585 128.17 181.798 128.487C182.01 128.804 182.314 129.052 182.671 129.2C183.028 129.347 183.421 129.388 183.802 129.316C184.182 129.243 184.532 129.062 184.806 128.795C185.081 128.527 185.269 128.186 185.346 127.814C185.423 127.442 185.385 127.056 185.237 126.705C185.09 126.353 184.84 126.053 184.518 125.842C184.196 125.631 183.818 125.518 183.43 125.518C182.915 125.518 182.42 125.718 182.054 126.073C181.688 126.429 181.48 126.913 181.476 127.418V127.418Z" fill="#FFE5D4"/>
<path d="M179.09 130.599C179.296 128.554 177.772 126.733 175.686 126.531C173.6 126.329 171.743 127.824 171.537 129.869C171.332 131.914 172.856 133.735 174.941 133.937C177.027 134.138 178.884 132.644 179.09 130.599Z" fill="#EFD3BF"/>
<path d="M172.486 127.77C172.304 128.222 172.21 128.704 172.21 129.191C172.204 129.945 172.434 130.684 172.869 131.307C173.303 131.93 173.921 132.408 174.64 132.677C175.359 132.946 176.145 132.993 176.892 132.813C177.639 132.632 178.313 132.232 178.822 131.666C178.484 132.458 177.877 133.112 177.104 133.516C176.331 133.92 175.44 134.049 174.581 133.881C173.722 133.714 172.948 133.261 172.391 132.598C171.834 131.935 171.529 131.104 171.526 130.245C171.53 129.333 171.871 128.453 172.486 127.77V127.77Z" fill="#DDB69B"/>
<path d="M174.05 129.191C174.05 129.57 174.165 129.94 174.379 130.255C174.594 130.57 174.899 130.816 175.256 130.961C175.613 131.106 176.006 131.144 176.385 131.07C176.765 130.996 177.113 130.814 177.386 130.546C177.659 130.278 177.846 129.936 177.921 129.565C177.996 129.193 177.958 128.808 177.81 128.457C177.662 128.107 177.411 127.808 177.09 127.597C176.769 127.387 176.391 127.274 176.004 127.274C175.486 127.274 174.989 127.476 174.622 127.836C174.256 128.195 174.05 128.682 174.05 129.191V129.191Z" fill="#FFE5D4"/>
<path d="M171.802 136.961C173.498 135.754 173.874 133.427 172.643 131.764C171.411 130.101 169.038 129.732 167.343 130.94C165.647 132.148 165.271 134.474 166.502 136.137C167.734 137.8 170.107 138.169 171.802 136.961Z" fill="#EFD3BF"/>
<path d="M166.754 131.442C166.557 131.891 166.457 132.375 166.461 132.864C166.459 133.617 166.691 134.353 167.127 134.973C167.563 135.594 168.181 136.069 168.899 136.336C169.617 136.604 170.402 136.65 171.147 136.469C171.893 136.287 172.565 135.888 173.073 135.323C172.861 135.819 172.542 136.264 172.138 136.627C171.734 136.99 171.253 137.262 170.731 137.425C170.209 137.587 169.656 137.637 169.112 137.569C168.569 137.502 168.046 137.319 167.582 137.034C167.117 136.748 166.721 136.367 166.422 135.917C166.122 135.467 165.927 134.958 165.848 134.426C165.769 133.894 165.809 133.351 165.966 132.836C166.122 132.321 166.391 131.845 166.754 131.442Z" fill="#DDB69B"/>
<path d="M168.301 132.912C168.301 133.291 168.416 133.661 168.63 133.976C168.845 134.291 169.15 134.537 169.507 134.682C169.865 134.827 170.257 134.865 170.637 134.791C171.016 134.717 171.364 134.535 171.637 134.267C171.911 133.999 172.097 133.657 172.172 133.285C172.247 132.914 172.209 132.528 172.061 132.178C171.913 131.828 171.662 131.529 171.341 131.318C171.02 131.108 170.642 130.995 170.255 130.995C169.999 130.995 169.745 131.045 169.507 131.141C169.27 131.237 169.055 131.379 168.873 131.557C168.692 131.734 168.548 131.946 168.45 132.178C168.352 132.411 168.301 132.66 168.301 132.912V132.912Z" fill="#FFE5D4"/>
<path d="M211.925 124.481C214.019 124.417 215.665 122.7 215.6 120.646C215.535 118.592 213.784 116.979 211.689 117.043C209.594 117.106 207.949 118.823 208.014 120.877C208.079 122.931 209.83 124.544 211.925 124.481Z" fill="#EFD3BF"/>
<path d="M208.999 118.284C208.817 118.736 208.723 119.218 208.722 119.705C208.721 120.456 208.952 121.19 209.386 121.809C209.819 122.428 210.435 122.903 211.15 123.172C211.865 123.44 212.647 123.489 213.391 123.312C214.136 123.135 214.807 122.74 215.318 122.18C214.988 122.979 214.383 123.64 213.61 124.049C212.836 124.459 211.941 124.59 211.078 124.422C210.216 124.254 209.441 123.796 208.886 123.127C208.331 122.459 208.031 121.621 208.038 120.759C208.042 119.847 208.384 118.968 208.999 118.284V118.284Z" fill="#DDB69B"/>
<path d="M210.546 119.705C210.546 120.084 210.661 120.455 210.875 120.77C211.09 121.085 211.395 121.33 211.753 121.476C212.11 121.621 212.503 121.659 212.882 121.585C213.261 121.511 213.609 121.328 213.882 121.06C214.156 120.792 214.342 120.451 214.417 120.079C214.493 119.707 214.454 119.322 214.306 118.972C214.158 118.622 213.908 118.322 213.586 118.112C213.265 117.901 212.887 117.789 212.5 117.789C211.982 117.789 211.485 117.991 211.119 118.35C210.752 118.709 210.546 119.197 210.546 119.705V119.705Z" fill="#FFE5D4"/>
<path d="M210.057 126.428C210.057 127.164 210.28 127.883 210.697 128.495C211.114 129.107 211.707 129.584 212.4 129.866C213.093 130.147 213.856 130.221 214.592 130.077C215.328 129.934 216.005 129.579 216.535 129.059C217.066 128.539 217.427 127.876 217.574 127.154C217.72 126.432 217.645 125.684 217.358 125.004C217.071 124.324 216.584 123.743 215.96 123.334C215.336 122.925 214.603 122.707 213.852 122.707C212.846 122.707 211.881 123.099 211.169 123.797C210.457 124.495 210.057 125.441 210.057 126.428V126.428Z" fill="#EFD3BF"/>
<path d="M211.035 123.969C210.791 124.533 210.695 125.147 210.754 125.756C210.813 126.365 211.026 126.951 211.374 127.459C211.721 127.968 212.192 128.383 212.744 128.669C213.296 128.955 213.912 129.101 214.536 129.095C215.069 129.095 215.596 128.984 216.081 128.769C216.567 128.554 217.001 128.241 217.353 127.849C217.016 128.642 216.409 129.295 215.636 129.699C214.863 130.103 213.972 130.232 213.113 130.065C212.254 129.898 211.48 129.444 210.923 128.781C210.366 128.118 210.06 127.287 210.057 126.428C210.058 125.517 210.407 124.64 211.035 123.969V123.969Z" fill="#DDB69B"/>
<path d="M212.582 125.374C212.582 125.753 212.696 126.124 212.911 126.439C213.126 126.754 213.431 127 213.788 127.145C214.145 127.29 214.538 127.328 214.917 127.254C215.296 127.18 215.645 126.997 215.918 126.729C216.191 126.461 216.377 126.12 216.453 125.748C216.528 125.376 216.49 124.991 216.342 124.641C216.194 124.291 215.943 123.991 215.622 123.781C215.3 123.57 214.923 123.458 214.536 123.458C214.279 123.458 214.025 123.507 213.788 123.604C213.551 123.7 213.336 123.841 213.154 124.019C212.973 124.197 212.829 124.408 212.731 124.641C212.632 124.873 212.582 125.123 212.582 125.374V125.374Z" fill="#FFE5D4"/>
<path d="M215.318 135.914C217.413 135.914 219.112 134.248 219.112 132.193C219.112 130.138 217.413 128.472 215.318 128.472C213.222 128.472 211.523 130.138 211.523 132.193C211.523 134.248 213.222 135.914 215.318 135.914Z" fill="#EFD3BF"/>
<path d="M212.5 129.734C212.17 130.544 212.14 131.442 212.416 132.272C212.693 133.101 213.258 133.809 214.013 134.272C214.768 134.734 215.664 134.922 216.546 134.801C217.427 134.681 218.238 134.261 218.835 133.614C218.629 134.119 218.312 134.574 217.907 134.947C217.502 135.319 217.019 135.599 216.491 135.768C215.964 135.938 215.405 135.991 214.854 135.925C214.303 135.859 213.773 135.676 213.302 135.387C212.831 135.099 212.431 134.713 212.129 134.256C211.827 133.799 211.631 133.283 211.554 132.744C211.478 132.205 211.523 131.656 211.686 131.136C211.85 130.616 212.128 130.137 212.5 129.734V129.734Z" fill="#DDB69B"/>
<path d="M214.064 131.139C214.064 131.519 214.179 131.89 214.394 132.205C214.61 132.521 214.916 132.766 215.274 132.911C215.632 133.055 216.026 133.092 216.405 133.017C216.785 132.942 217.133 132.758 217.406 132.488C217.678 132.219 217.863 131.876 217.937 131.503C218.01 131.13 217.969 130.744 217.819 130.395C217.668 130.045 217.415 129.747 217.092 129.538C216.768 129.329 216.389 129.22 216.002 129.223C215.746 129.223 215.493 129.272 215.256 129.369C215.02 129.465 214.806 129.607 214.626 129.785C214.445 129.963 214.303 130.174 214.207 130.407C214.11 130.639 214.062 130.888 214.064 131.139V131.139Z" fill="#FFE5D4"/>
<path d="M210.676 137.67C210.673 138.408 210.893 139.129 211.309 139.743C211.725 140.358 212.317 140.837 213.011 141.121C213.705 141.404 214.47 141.479 215.207 141.336C215.945 141.193 216.622 140.839 217.154 140.317C217.686 139.796 218.047 139.131 218.193 138.408C218.339 137.685 218.263 136.936 217.974 136.255C217.684 135.574 217.195 134.994 216.569 134.586C215.942 134.178 215.207 133.962 214.455 133.965C213.453 133.965 212.492 134.356 211.783 135.051C211.074 135.745 210.676 136.688 210.676 137.67Z" fill="#EFD3BF"/>
<path d="M211.637 135.211C211.402 135.779 211.313 136.394 211.378 137.003C211.443 137.612 211.659 138.197 212.008 138.705C212.357 139.213 212.828 139.629 213.38 139.916C213.931 140.203 214.547 140.354 215.171 140.353C215.705 140.352 216.233 140.239 216.719 140.021C217.205 139.804 217.638 139.487 217.989 139.092C217.658 139.89 217.054 140.551 216.281 140.961C215.507 141.37 214.612 141.502 213.749 141.333C212.887 141.165 212.112 140.707 211.557 140.038C211.002 139.37 210.702 138.532 210.709 137.67C210.705 136.768 211.035 135.894 211.637 135.211Z" fill="#DDB69B"/>
<path d="M213.184 136.632C213.184 137.141 213.39 137.628 213.757 137.987C214.123 138.347 214.62 138.549 215.139 138.549C215.657 138.549 216.154 138.347 216.52 137.987C216.887 137.628 217.093 137.141 217.093 136.632C217.093 136.124 216.887 135.637 216.52 135.277C216.154 134.918 215.657 134.716 215.139 134.716C214.62 134.716 214.123 134.918 213.757 135.277C213.39 135.637 213.184 136.124 213.184 136.632V136.632Z" fill="#FFE5D4"/>
<path d="M210.058 146.757C212.153 146.757 213.852 145.091 213.852 143.036C213.852 140.981 212.153 139.315 210.058 139.315C207.962 139.315 206.263 140.981 206.263 143.036C206.263 145.091 207.962 146.757 210.058 146.757Z" fill="#EFD3BF"/>
<path d="M207.24 140.577C207.05 141.027 206.95 141.51 206.947 141.998C206.951 142.982 207.353 143.924 208.064 144.619C208.775 145.313 209.738 145.703 210.742 145.703C211.272 145.702 211.796 145.591 212.279 145.376C212.762 145.161 213.193 144.848 213.543 144.457C213.205 145.25 212.598 145.903 211.825 146.307C211.053 146.711 210.161 146.84 209.302 146.673C208.443 146.505 207.669 146.052 207.112 145.389C206.556 144.726 206.25 143.895 206.247 143.036C206.255 142.124 206.609 141.247 207.24 140.577V140.577Z" fill="#DDB69B"/>
<path d="M208.787 141.998C208.787 142.506 208.993 142.994 209.36 143.353C209.726 143.712 210.223 143.914 210.742 143.914C211.26 143.914 211.757 143.712 212.123 143.353C212.49 142.994 212.696 142.506 212.696 141.998C212.696 141.49 212.49 141.002 212.123 140.643C211.757 140.284 211.26 140.082 210.742 140.082C210.223 140.082 209.726 140.284 209.36 140.643C208.993 141.002 208.787 141.49 208.787 141.998V141.998Z" fill="#FFE5D4"/>
<path d="M204.244 150.477C206.339 150.477 208.038 148.812 208.038 146.757C208.038 144.702 206.339 143.036 204.244 143.036C202.148 143.036 200.449 144.702 200.449 146.757C200.449 148.812 202.148 150.477 204.244 150.477Z" fill="#EFD3BF"/>
<path d="M201.426 144.297C201.229 144.741 201.129 145.219 201.133 145.703C201.128 146.457 201.358 147.196 201.792 147.819C202.227 148.442 202.845 148.92 203.564 149.189C204.283 149.458 205.068 149.505 205.816 149.325C206.563 149.144 207.236 148.744 207.745 148.178C207.386 148.934 206.778 149.55 206.019 149.926C205.26 150.303 204.394 150.418 203.56 150.254C202.726 150.091 201.972 149.657 201.42 149.022C200.867 148.388 200.549 147.59 200.514 146.757C200.5 145.855 200.825 144.98 201.426 144.297V144.297Z" fill="#DDB69B"/>
<path d="M204.928 147.619C206.007 147.619 206.882 146.761 206.882 145.703C206.882 144.644 206.007 143.786 204.928 143.786C203.848 143.786 202.973 144.644 202.973 145.703C202.973 146.761 203.848 147.619 204.928 147.619Z" fill="#FFE5D4"/>
<path d="M196.654 151.643C198.75 151.643 200.449 149.977 200.449 147.922C200.449 145.868 198.75 144.202 196.654 144.202C194.559 144.202 192.86 145.868 192.86 147.922C192.86 149.977 194.559 151.643 196.654 151.643Z" fill="#EFD3BF"/>
<path d="M193.837 145.447C193.649 145.899 193.55 146.381 193.544 146.869C193.539 147.623 193.769 148.361 194.203 148.984C194.637 149.607 195.255 150.085 195.974 150.354C196.693 150.624 197.479 150.671 198.226 150.49C198.974 150.31 199.647 149.91 200.156 149.344C199.949 149.85 199.632 150.306 199.226 150.679C198.82 151.052 198.336 151.333 197.807 151.502C197.278 151.671 196.717 151.724 196.165 151.657C195.613 151.59 195.083 151.404 194.612 151.114C194.141 150.823 193.741 150.435 193.44 149.976C193.139 149.517 192.945 148.999 192.871 148.458C192.797 147.918 192.845 147.368 193.012 146.847C193.179 146.327 193.461 145.849 193.837 145.447V145.447Z" fill="#DDB69B"/>
<path d="M197.338 148.785C198.418 148.785 199.293 147.927 199.293 146.869C199.293 145.81 198.418 144.952 197.338 144.952C196.259 144.952 195.384 145.81 195.384 146.869C195.384 147.927 196.259 148.785 197.338 148.785Z" fill="#FFE5D4"/>
<path d="M189.082 151.34C191.177 151.34 192.876 149.674 192.876 147.619C192.876 145.564 191.177 143.898 189.082 143.898C186.986 143.898 185.287 145.564 185.287 147.619C185.287 149.674 186.986 151.34 189.082 151.34Z" fill="#EFD3BF"/>
<path d="M186.264 145.16C186.066 145.608 185.966 146.092 185.971 146.581C185.976 147.332 186.213 148.063 186.651 148.678C187.089 149.294 187.708 149.764 188.424 150.028C189.141 150.291 189.923 150.334 190.665 150.152C191.408 149.97 192.077 149.571 192.583 149.008C192.245 149.801 191.639 150.454 190.866 150.858C190.093 151.262 189.201 151.391 188.342 151.224C187.483 151.057 186.71 150.603 186.153 149.94C185.596 149.277 185.29 148.446 185.287 147.587C185.299 146.688 185.646 145.824 186.264 145.16V145.16Z" fill="#DDB69B"/>
<path d="M187.811 146.581C187.811 146.96 187.926 147.331 188.141 147.646C188.355 147.961 188.661 148.206 189.018 148.352C189.375 148.497 189.768 148.534 190.147 148.461C190.526 148.387 190.874 148.204 191.147 147.936C191.421 147.668 191.607 147.327 191.682 146.955C191.758 146.583 191.719 146.198 191.571 145.848C191.423 145.498 191.173 145.198 190.851 144.988C190.53 144.777 190.152 144.665 189.766 144.665C189.247 144.665 188.75 144.867 188.384 145.226C188.017 145.585 187.811 146.073 187.811 146.581V146.581Z" fill="#FFE5D4"/>
<path d="M177.714 145.703C177.711 146.439 177.931 147.16 178.346 147.774C178.761 148.388 179.352 148.868 180.045 149.152C180.738 149.436 181.502 149.512 182.239 149.37C182.976 149.228 183.654 148.875 184.186 148.355C184.718 147.836 185.081 147.173 185.229 146.451C185.377 145.728 185.303 144.979 185.016 144.299C184.729 143.618 184.243 143.036 183.619 142.626C182.994 142.217 182.26 141.998 181.509 141.998C180.505 141.998 179.542 142.388 178.831 143.082C178.12 143.776 177.718 144.719 177.714 145.703V145.703Z" fill="#EFD3BF"/>
<path d="M178.675 143.244C178.433 143.808 178.337 144.423 178.396 145.033C178.456 145.643 178.668 146.229 179.015 146.738C179.362 147.248 179.833 147.665 180.384 147.952C180.936 148.24 181.552 148.389 182.177 148.386C182.71 148.382 183.237 148.268 183.723 148.051C184.209 147.833 184.642 147.518 184.994 147.124C184.65 147.907 184.043 148.55 183.274 148.947C182.505 149.343 181.62 149.469 180.767 149.302C179.915 149.136 179.147 148.688 178.591 148.032C178.035 147.377 177.726 146.555 177.714 145.703C177.713 144.795 178.056 143.919 178.675 143.244V143.244Z" fill="#DDB69B"/>
<path d="M180.222 144.665C180.222 145.044 180.337 145.414 180.552 145.729C180.766 146.045 181.071 146.29 181.429 146.435C181.786 146.58 182.179 146.618 182.558 146.544C182.937 146.47 183.285 146.288 183.558 146.02C183.832 145.752 184.018 145.41 184.093 145.039C184.169 144.667 184.13 144.282 183.982 143.931C183.834 143.581 183.584 143.282 183.262 143.071C182.941 142.861 182.563 142.749 182.176 142.749C181.658 142.749 181.161 142.95 180.795 143.31C180.428 143.669 180.222 144.157 180.222 144.665V144.665Z" fill="#FFE5D4"/>
<path d="M170.679 143.659C170.676 144.396 170.896 145.118 171.311 145.732C171.727 146.346 172.32 146.826 173.014 147.109C173.708 147.393 174.472 147.468 175.21 147.325C175.947 147.182 176.625 146.827 177.156 146.306C177.688 145.784 178.05 145.12 178.196 144.397C178.342 143.673 178.265 142.924 177.976 142.243C177.687 141.563 177.198 140.982 176.571 140.574C175.945 140.167 175.209 139.951 174.457 139.954C173.456 139.958 172.498 140.35 171.79 141.044C171.082 141.738 170.683 142.677 170.679 143.659Z" fill="#EFD3BF"/>
<path d="M171.656 141.199C171.413 141.764 171.318 142.379 171.377 142.989C171.436 143.599 171.649 144.185 171.996 144.694C172.343 145.204 172.813 145.621 173.365 145.908C173.917 146.196 174.533 146.345 175.157 146.342C175.691 146.34 176.219 146.227 176.705 146.01C177.191 145.792 177.624 145.475 177.975 145.08C177.637 145.872 177.03 146.526 176.257 146.93C175.485 147.334 174.593 147.463 173.734 147.295C172.875 147.128 172.101 146.675 171.544 146.012C170.988 145.349 170.682 144.517 170.679 143.659C170.682 142.749 171.031 141.872 171.656 141.199V141.199Z" fill="#DDB69B"/>
<path d="M173.203 142.621C173.203 143 173.318 143.37 173.532 143.685C173.747 144.001 174.052 144.246 174.409 144.391C174.767 144.536 175.159 144.574 175.539 144.5C175.918 144.426 176.266 144.244 176.539 143.976C176.812 143.708 176.999 143.366 177.074 142.995C177.149 142.623 177.111 142.238 176.963 141.887C176.815 141.537 176.564 141.238 176.243 141.027C175.922 140.817 175.544 140.704 175.157 140.704C174.639 140.704 174.142 140.906 173.775 141.266C173.409 141.625 173.203 142.113 173.203 142.621V142.621Z" fill="#FFE5D4"/>
<path d="M164.506 140.577C164.506 141.313 164.729 142.032 165.146 142.644C165.563 143.256 166.156 143.733 166.849 144.014C167.542 144.296 168.305 144.37 169.041 144.226C169.777 144.082 170.454 143.728 170.984 143.208C171.515 142.687 171.876 142.024 172.023 141.303C172.169 140.581 172.094 139.833 171.807 139.153C171.52 138.473 171.033 137.892 170.409 137.483C169.785 137.074 169.052 136.856 168.301 136.856C167.295 136.856 166.329 137.248 165.618 137.946C164.906 138.643 164.506 139.59 164.506 140.577Z" fill="#EFD3BF"/>
<path d="M165.484 138.101C165.296 138.553 165.197 139.035 165.191 139.523C165.185 140.277 165.415 141.016 165.85 141.638C166.284 142.261 166.902 142.739 167.621 143.009C168.34 143.278 169.126 143.325 169.873 143.145C170.62 142.964 171.293 142.564 171.803 141.998C171.596 142.505 171.279 142.96 170.873 143.333C170.467 143.706 169.982 143.987 169.453 144.156C168.924 144.325 168.364 144.378 167.812 144.311C167.26 144.244 166.729 144.058 166.258 143.768C165.787 143.478 165.387 143.089 165.087 142.63C164.786 142.171 164.591 141.653 164.518 141.113C164.444 140.572 164.492 140.022 164.659 139.502C164.826 138.981 165.107 138.503 165.484 138.101Z" fill="#DDB69B"/>
<path d="M168.985 141.439C170.064 141.439 170.939 140.581 170.939 139.523C170.939 138.464 170.064 137.606 168.985 137.606C167.906 137.606 167.031 138.464 167.031 139.523C167.031 140.581 167.906 141.439 168.985 141.439Z" fill="#FFE5D4"/>
<path d="M140.257 130.276L189.326 102.601C190.545 101.732 191.543 100.598 192.241 99.2872C192.938 97.9769 193.318 96.5259 193.348 95.0479V53.0652C193.348 50.1428 191.915 49.3124 189.7 50.574L141.023 78.0408C139.797 78.9041 138.794 80.0371 138.096 81.3488C137.397 82.6606 137.022 84.1146 137 85.5942V127.896C137 130.803 138.026 131.537 140.257 130.276Z" fill="#D4D4D4"/>
<path d="M137.831 130.676L144.198 135.051L148.042 131.586L142.863 127.067L137.831 130.676Z" fill="#D4D4D4"/>
<path d="M192.355 50.2555L198.674 54.6151L195.677 59.2621L189.326 55.6371L192.355 50.2555Z" fill="#D4D4D4"/>
<path d="M146.771 134.716L195.775 107.042C196.992 106.174 197.988 105.042 198.686 103.735C199.384 102.427 199.764 100.979 199.798 99.5041V57.5054C199.798 54.5831 198.364 53.7367 196.15 54.9983L147.472 82.4811C146.26 83.3495 145.272 84.4829 144.585 85.7913C143.898 87.0997 143.531 88.547 143.514 90.0185V132.337C143.514 135.243 144.475 135.978 146.771 134.716Z" fill="#C0C0C0"/>
<path d="M144.703 126.907V89.9227C144.74 88.7239 145.052 87.5486 145.616 86.4842C146.18 85.4199 146.981 84.4937 147.96 83.7746L192.241 58.6712C192.616 58.4636 197.338 56.1481 197.338 57.0743V99.1688C197.407 100.281 197.203 101.393 196.744 102.413C196.285 103.432 195.584 104.329 194.7 105.029L147.065 131.442C146.022 132.033 144.703 127.881 144.703 126.907Z" fill="#444444"/>
<path d="M197.257 55.8766L192.371 58.6712V95.6556C192.334 96.8545 192.022 98.0298 191.458 99.0941C190.894 100.159 190.093 101.085 189.114 101.804L144.703 126.907V132.129C144.703 133.103 145.094 134.173 146.071 133.63L195.352 105.732C196.331 105.013 197.132 104.087 197.696 103.023C198.259 101.958 198.572 100.783 198.609 99.584V57.3777C198.544 56.3876 198.153 55.4455 197.257 55.8766Z" fill="#929493"/>
<path d="M158.171 129.303C158.171 129.686 157.943 129.861 157.65 129.702C157.491 129.588 157.361 129.439 157.271 129.267C157.18 129.095 157.132 128.905 157.129 128.712C157.129 128.328 157.357 128.153 157.65 128.328C157.81 128.438 157.941 128.584 158.032 128.753C158.122 128.923 158.17 129.111 158.171 129.303V129.303Z" fill="#D4D4D4"/>
<path d="M157.211 128.297L151.38 131.602L152.048 133.039L157.943 129.702L157.211 128.297Z" fill="#D4D4D4"/>
<path d="M152.227 132.624C152.227 133.007 151.983 133.183 151.706 133.023C151.545 132.91 151.412 132.762 151.319 132.59C151.226 132.418 151.174 132.228 151.169 132.033C151.169 131.65 151.413 131.474 151.706 131.65C151.864 131.762 151.993 131.908 152.084 132.077C152.174 132.246 152.223 132.433 152.227 132.624V132.624Z" fill="#D4D4D4"/>
<path d="M192.518 109.868C192.518 110.251 192.29 110.427 191.997 110.267C191.837 110.153 191.707 110.004 191.617 109.833C191.527 109.661 191.478 109.471 191.476 109.277C191.476 108.894 191.704 108.718 191.997 108.894C192.156 109.005 192.286 109.151 192.376 109.32C192.467 109.489 192.515 109.677 192.518 109.868V109.868Z" fill="#D4D4D4"/>
<path d="M191.638 108.862L185.792 112.184L186.476 113.605L192.355 110.267L191.638 108.862Z" fill="#D4D4D4"/>
<path d="M186.655 113.19C186.655 113.573 186.411 113.749 186.118 113.589C185.961 113.472 185.833 113.323 185.743 113.152C185.653 112.98 185.603 112.791 185.596 112.599C185.596 112.216 185.841 112.04 186.118 112.216C186.279 112.325 186.411 112.471 186.504 112.64C186.598 112.809 186.649 112.997 186.655 113.19V113.19Z" fill="#D4D4D4"/>
</g>
<g clip-path="url(#clip1_81_4)">
<path d="M52.4743 94.9781C52.4787 96.2837 52.1049 97.5612 51.4004 98.6486C50.6959 99.736 49.6924 100.584 48.5172 101.086C47.342 101.588 46.0479 101.72 44.7992 101.467C43.5505 101.213 42.4033 100.585 41.5032 99.6615C40.603 98.7383 39.9905 97.5618 39.7432 96.2811C39.4959 95.0004 39.6251 93.6732 40.1142 92.4678C40.6034 91.2625 41.4306 90.2333 42.4908 89.5107C43.5511 88.7882 44.7967 88.4049 46.0696 88.4093C47.7683 88.4093 49.3973 89.1014 50.5984 90.3333C51.7995 91.5652 52.4743 93.2359 52.4743 94.9781V94.9781Z" fill="#EFD3BF"/>
<path d="M50.818 90.6292C51.1698 91.411 51.3579 92.2598 51.3701 93.1207C51.3701 93.9853 51.2037 94.8413 50.8805 95.6397C50.5572 96.4382 50.0835 97.1633 49.4864 97.7736C48.8893 98.3838 48.1807 98.8672 47.4011 99.196C46.6215 99.5248 45.7863 99.6925 44.9433 99.6895C44.0397 99.6836 43.1479 99.4783 42.3286 99.0875C41.5092 98.6966 40.7816 98.1294 40.195 97.4244C40.7751 98.7974 41.7949 99.9262 43.0857 100.624C44.3764 101.321 45.8607 101.546 47.293 101.261C48.7252 100.976 50.0195 100.197 50.9618 99.0547C51.904 97.9122 52.4376 96.474 52.4744 94.9781C52.4685 93.3677 51.878 91.8173 50.818 90.6292V90.6292Z" fill="#DDB69B"/>
<path d="M48.2119 93.1207C48.2119 93.7926 48.0176 94.4495 47.6536 95.0083C47.2896 95.567 46.7722 96.0025 46.1669 96.2597C45.5616 96.5168 44.8955 96.5841 44.2529 96.453C43.6102 96.3219 43.02 95.9983 42.5567 95.5231C42.0934 95.048 41.7778 94.4426 41.65 93.7835C41.5222 93.1244 41.5878 92.4413 41.8385 91.8204C42.0893 91.1996 42.5139 90.669 43.0587 90.2956C43.6034 89.9223 44.2439 89.723 44.8991 89.723C45.7777 89.723 46.6204 90.081 47.2416 90.7182C47.8629 91.3553 48.2119 92.2195 48.2119 93.1207Z" fill="#FFE5D4"/>
<path d="M40.99 130.404C40.99 131.703 40.6144 132.973 39.9106 134.053C39.2068 135.134 38.2066 135.976 37.0363 136.473C35.866 136.97 34.5782 137.1 33.3358 136.846C32.0934 136.593 30.9522 135.967 30.0565 135.049C29.1608 134.13 28.5508 132.96 28.3037 131.685C28.0565 130.411 28.1834 129.09 28.6681 127.89C29.1529 126.69 29.9738 125.664 31.027 124.942C32.0803 124.22 33.3186 123.835 34.5853 123.835C36.2839 123.835 37.913 124.527 39.1141 125.759C40.3152 126.991 40.99 128.662 40.99 130.404V130.404Z" fill="#EFD3BF"/>
<path d="M39.3557 126.055C39.7549 127.054 39.908 128.138 39.8014 129.212C39.6947 130.286 39.3317 131.317 38.7443 132.212C38.1569 133.108 37.3634 133.842 36.4338 134.348C35.5042 134.854 34.4673 135.118 33.4148 135.115C32.5112 135.11 31.6194 134.904 30.8 134.513C29.9807 134.123 29.253 133.555 28.6665 132.85C29.0024 133.755 29.5292 134.573 30.2093 135.245C30.8895 135.917 31.706 136.426 32.6004 136.736C33.4949 137.046 34.4452 137.15 35.3832 137.039C36.3213 136.929 37.2239 136.607 38.0264 136.097C38.829 135.587 39.5116 134.901 40.0255 134.088C40.5393 133.276 40.8716 132.357 40.9987 131.397C41.1257 130.438 41.0443 129.461 40.7602 128.538C40.4762 127.614 39.9966 126.766 39.3557 126.055V126.055Z" fill="#DDB69B"/>
<path d="M36.7277 128.569C36.7277 129.241 36.5334 129.898 36.1694 130.457C35.8053 131.016 35.288 131.451 34.6826 131.708C34.0773 131.965 33.4112 132.033 32.7686 131.902C32.126 131.771 31.5357 131.447 31.0724 130.972C30.6091 130.497 30.2936 129.891 30.1658 129.232C30.0379 128.573 30.1035 127.89 30.3543 127.269C30.605 126.648 31.0296 126.118 31.5744 125.744C32.1192 125.371 32.7597 125.172 33.4149 125.172C34.2935 125.172 35.1361 125.53 35.7574 126.167C36.3786 126.804 36.7277 127.668 36.7277 128.569Z" fill="#FFE5D4"/>
<path d="M106.583 123.971C106.579 125.269 106.199 126.537 105.493 127.614C104.786 128.692 103.785 129.53 102.614 130.024C101.443 130.517 100.156 130.644 98.9153 130.388C97.6744 130.132 96.5352 129.505 95.6417 128.585C94.7482 127.666 94.1404 126.495 93.8951 125.222C93.6497 123.948 93.7779 122.629 94.2633 121.43C94.7486 120.231 95.5696 119.206 96.6223 118.485C97.6751 117.764 98.9125 117.38 100.178 117.38C101.021 117.38 101.856 117.55 102.634 117.882C103.413 118.213 104.12 118.699 104.715 119.312C105.31 119.924 105.781 120.651 106.102 121.45C106.422 122.25 106.586 123.107 106.583 123.971V123.971Z" fill="#EFD3BF"/>
<path d="M104.971 119.599C105.37 120.598 105.523 121.683 105.416 122.757C105.31 123.831 104.947 124.861 104.359 125.757C103.772 126.653 102.978 127.386 102.049 127.892C101.119 128.399 100.082 128.662 99.0299 128.66C98.1263 128.654 97.2345 128.449 96.4152 128.058C95.5958 127.667 94.8681 127.1 94.2816 126.395C94.6175 127.3 95.1444 128.117 95.8245 128.789C96.5046 129.461 97.3211 129.97 98.2155 130.28C99.11 130.591 100.06 130.694 100.998 130.584C101.936 130.473 102.839 130.151 103.642 129.641C104.444 129.131 105.127 128.445 105.641 127.633C106.154 126.82 106.487 125.901 106.614 124.942C106.741 123.982 106.659 123.005 106.375 122.082C106.091 121.158 105.612 120.311 104.971 119.599V119.599Z" fill="#DDB69B"/>
<path d="M102.343 122.114C102.343 122.786 102.148 123.443 101.784 124.001C101.42 124.56 100.903 124.996 100.298 125.253C99.6923 125.51 99.0262 125.577 98.3836 125.446C97.741 125.315 97.1507 124.991 96.6874 124.516C96.2241 124.041 95.9086 123.436 95.7808 122.777C95.6529 122.118 95.7185 121.434 95.9693 120.814C96.22 120.193 96.6446 119.662 97.1894 119.289C97.7342 118.915 98.3747 118.716 99.0299 118.716C99.9085 118.716 100.751 119.074 101.372 119.711C101.994 120.349 102.343 121.213 102.343 122.114Z" fill="#FFE5D4"/>
<path d="M95.1208 159.397C95.1164 160.695 94.7371 161.963 94.0307 163.04C93.3243 164.118 92.3225 164.956 91.1518 165.45C89.9811 165.943 88.6941 166.07 87.4531 165.814C86.2122 165.558 85.0731 164.931 84.1796 164.011C83.2861 163.092 82.6783 161.921 82.4329 160.648C82.1876 159.374 82.3157 158.054 82.8011 156.855C83.2865 155.656 84.1074 154.632 85.1602 153.911C86.2129 153.19 87.4503 152.806 88.7161 152.806C89.5591 152.806 90.3937 152.976 91.1722 153.308C91.9507 153.639 92.6577 154.125 93.2527 154.738C93.8478 155.35 94.3191 156.077 94.6396 156.876C94.9602 157.676 95.1237 158.533 95.1208 159.397V159.397Z" fill="#EFD3BF"/>
<path d="M93.4864 155.026C93.885 156.023 94.0382 157.105 93.9327 158.177C93.8271 159.249 93.466 160.278 92.8812 161.173C92.2964 162.069 91.5058 162.803 90.5792 163.31C89.6525 163.818 88.6183 164.085 87.5676 164.086C86.6607 164.08 85.7656 163.875 84.9427 163.484C84.1197 163.094 83.3881 162.526 82.7972 161.821C83.3629 163.224 84.3852 164.383 85.6901 165.101C86.9951 165.818 88.5021 166.05 89.9548 165.756C91.4075 165.462 92.716 164.661 93.6579 163.49C94.5997 162.318 95.1167 160.848 95.1207 159.329C95.11 157.737 94.5282 156.205 93.4864 155.026V155.026Z" fill="#DDB69B"/>
<path d="M90.8583 157.54C90.8583 158.213 90.6634 158.87 90.2985 159.43C89.9335 159.989 89.4148 160.424 88.8081 160.681C88.2015 160.937 87.5343 161.003 86.8911 160.87C86.2479 160.737 85.6577 160.411 85.1952 159.934C84.7328 159.457 84.4191 158.849 84.2938 158.189C84.1684 157.528 84.2372 156.844 84.4913 156.224C84.7455 155.603 85.1735 155.074 85.7212 154.704C86.2689 154.333 86.9115 154.138 87.5676 154.142C88.0016 154.142 88.4314 154.23 88.8321 154.401C89.2327 154.572 89.5965 154.823 89.9023 155.139C90.2082 155.454 90.4501 155.829 90.6142 156.241C90.7783 156.653 90.8612 157.095 90.8583 157.54Z" fill="#FFE5D4"/>
<path d="M91.0571 176.544L55.5 197.247L5.47714 167.733L41.0122 147.03L91.0571 176.544Z" fill="#D4D4D4"/>
<path d="M5.47712 167.733V173.486L55.5 203V197.247L5.47712 167.733Z" fill="#929493"/>
<path d="M91.0571 176.544V182.32L55.5 203V197.247L91.0571 176.544Z" fill="#929493"/>
<path d="M-4.77009e-05 98.1944C-4.77009e-05 105.964 4.59366 109.52 10.2695 106.168C15.9454 102.815 20.4508 93.8002 20.4508 86.0309C20.4508 78.2617 15.835 74.7055 10.1591 78.0578C4.48324 81.4101 -4.77009e-05 90.4478 -4.77009e-05 98.1944Z" fill="#444444"/>
<path d="M100.708 127.21L16.8289 77.401L3.15822 106.485L87.391 156.453L100.708 127.21Z" fill="#444444"/>
<path d="M50.31 132.918C44.809 132.918 40.3496 130.484 40.3496 127.482C40.3496 124.48 44.809 122.046 50.31 122.046C55.811 122.046 60.2704 124.48 60.2704 127.482C60.2704 130.484 55.811 132.918 50.31 132.918Z" fill="#332416"/>
<path d="M40.3275 171.515C40.3275 174.528 44.7445 176.952 50.2879 176.952C55.8312 176.952 60.2041 174.528 60.2041 171.515C60.2041 168.503 55.7871 166.079 50.2437 166.079C44.7003 166.079 40.3275 168.525 40.3275 171.515Z" fill="#2D2D2D"/>
<path d="M40.3496 127.482H60.2704V171.515H40.3496V127.482Z" fill="#2D2D2D"/>
<path d="M100.73 127.21L48.256 96.0426C45.757 96.6857 43.4133 97.8477 41.3696 99.4567C39.3259 101.066 37.6257 103.088 36.3742 105.397C33.18 110.391 31.21 116.103 30.6321 122.046L87.3909 156.543L100.73 127.21Z" fill="#444444"/>
<path d="M107.422 131.174L97.5723 125.33C97.5723 125.33 91.6755 126.417 86.5297 134.73C83.2192 140.246 81.3835 146.558 81.2072 153.032L93.884 160.348L107.422 131.174Z" fill="#444444"/>
<path d="M90.4387 151.877C90.4387 159.646 95.0324 163.202 100.73 159.85C106.428 156.498 111 147.483 111 139.714C111 131.944 106.406 128.388 100.73 131.74C95.0545 135.093 90.4387 144.13 90.4387 151.877Z" fill="#2D2D2D"/>
<path d="M33.3927 137.267C33.3927 138.566 33.0171 139.836 32.3133 140.917C31.6096 141.997 30.6093 142.839 29.439 143.336C28.2687 143.833 26.9809 143.963 25.7385 143.71C24.4961 143.456 23.3549 142.831 22.4592 141.912C21.5635 140.993 20.9535 139.823 20.7064 138.549C20.4592 137.275 20.5861 135.954 21.0708 134.753C21.5556 133.553 22.3765 132.527 23.4297 131.806C24.483 131.084 25.7213 130.698 26.988 130.698C28.6866 130.698 30.3157 131.391 31.5168 132.622C32.7179 133.854 33.3927 135.525 33.3927 137.267Z" fill="#EFD3BF"/>
<path d="M31.7585 132.896C32.0745 133.695 32.2394 134.548 32.2444 135.41C32.2421 136.739 31.8469 138.036 31.111 139.13C30.375 140.223 29.3329 141.062 28.1222 141.536C26.9116 142.01 25.5893 142.095 24.3301 141.782C23.0709 141.469 21.9339 140.771 21.0693 139.781C21.4052 140.687 21.9321 141.504 22.6122 142.176C23.2923 142.848 24.1088 143.357 25.0032 143.667C25.8977 143.977 26.848 144.081 27.786 143.97C28.7241 143.86 29.6267 143.538 30.4293 143.028C31.2318 142.518 31.9145 141.832 32.4283 141.019C32.9421 140.207 33.2745 139.288 33.4015 138.328C33.5285 137.369 33.4471 136.392 33.1631 135.469C32.879 134.545 32.3994 133.697 31.7585 132.986V132.896Z" fill="#DDB69B"/>
<path d="M25.8396 138.807C24.01 138.807 22.5268 137.286 22.5268 135.41C22.5268 133.533 24.01 132.012 25.8396 132.012C27.6692 132.012 29.1523 133.533 29.1523 135.41C29.1523 137.286 27.6692 138.807 25.8396 138.807Z" fill="#FFE5D4"/>
<path d="M22.6594 138.422C22.616 139.712 22.2033 140.96 21.4727 142.01C20.7421 143.061 19.7261 143.867 18.5513 144.329C17.3766 144.791 16.0953 144.888 14.8672 144.608C13.6391 144.327 12.5188 143.682 11.6459 142.753C10.7731 141.824 10.1864 140.651 9.95917 139.382C9.73191 138.113 9.87413 136.804 10.3681 135.617C10.862 134.43 11.6858 133.419 12.7366 132.709C13.7874 132 15.0187 131.623 16.2768 131.627C17.1349 131.63 17.9838 131.809 18.773 132.154C19.5623 132.5 20.2757 133.005 20.8711 133.639C21.4664 134.272 21.9315 135.022 22.2387 135.844C22.5459 136.666 22.689 137.543 22.6594 138.422V138.422Z" fill="#EFD3BF"/>
<path d="M21.0472 133.892C21.4464 134.891 21.5995 135.975 21.4928 137.049C21.3862 138.123 21.0231 139.154 20.4358 140.049C19.8484 140.945 19.0548 141.679 18.1253 142.185C17.1957 142.691 16.1588 142.955 15.1063 142.953C14.2026 142.947 13.3108 142.741 12.4915 142.351C11.6722 141.96 10.9445 141.392 10.3579 140.687C10.9225 142.063 11.9267 143.2 13.2053 143.911C14.4838 144.623 15.9605 144.867 17.3924 144.604C18.8243 144.34 20.126 143.584 21.0833 142.461C22.0406 141.337 22.5964 139.913 22.6594 138.422C22.6801 136.761 22.1065 135.149 21.0472 133.892V133.892Z" fill="#DDB69B"/>
<path d="M18.4191 136.452C18.4191 137.124 18.2248 137.781 17.8608 138.339C17.4968 138.898 16.9794 139.334 16.374 139.591C15.7687 139.848 15.1026 139.915 14.46 139.784C13.8174 139.653 13.2271 139.329 12.7638 138.854C12.3005 138.379 11.985 137.774 11.8572 137.115C11.7293 136.456 11.7949 135.772 12.0457 135.152C12.2964 134.531 12.721 134 13.2658 133.627C13.8106 133.253 14.4511 133.054 15.1063 133.054C15.9849 133.054 16.8275 133.412 17.4488 134.049C18.07 134.687 18.4191 135.551 18.4191 136.452Z" fill="#FFE5D4"/>
<path d="M48.3665 85.3062C48.3665 86.6054 47.9908 87.8754 47.2871 88.9556C46.5833 90.0358 45.583 90.8777 44.4127 91.3749C43.2424 91.8721 41.9547 92.0022 40.7123 91.7487C39.4699 91.4953 38.3287 90.8696 37.433 89.951C36.5372 89.0323 35.9273 87.8619 35.6801 86.5877C35.433 85.3135 35.5598 83.9927 36.0446 82.7924C36.5293 81.5921 37.3503 80.5662 38.4035 79.8445C39.4567 79.1227 40.695 78.7374 41.9618 78.7374C43.6604 78.7374 45.2895 79.4295 46.4906 80.6614C47.6917 81.8932 48.3665 83.564 48.3665 85.3062V85.3062Z" fill="#EFD3BF"/>
<path d="M46.7322 80.9346C47.1314 81.9334 47.2845 83.0177 47.1778 84.0917C47.0712 85.1656 46.7081 86.1961 46.1208 87.0919C45.5334 87.9876 44.7398 88.7211 43.8103 89.2275C42.8807 89.7338 41.8438 89.9974 40.7912 89.9949C39.8884 89.9847 38.998 89.7774 38.1793 89.3868C37.3605 88.9963 36.6323 88.4314 36.0429 87.7298C36.6093 89.135 37.6335 90.2951 38.9407 91.0123C40.248 91.7295 41.7573 91.9594 43.2113 91.6627C44.6654 91.366 45.974 90.5612 46.9141 89.3855C47.8542 88.2098 48.3675 86.7361 48.3665 85.2156C48.3232 83.6372 47.7453 82.1235 46.7322 80.9346V80.9346Z" fill="#DDB69B"/>
<path d="M44.104 83.4488C44.104 84.1208 43.9097 84.7777 43.5457 85.3364C43.1817 85.8951 42.6643 86.3306 42.059 86.5878C41.4536 86.8449 40.7876 86.9122 40.1449 86.7811C39.5023 86.65 38.9121 86.3264 38.4488 85.8513C37.9855 85.3761 37.6699 84.7707 37.5421 84.1116C37.4143 83.4525 37.4799 82.7694 37.7306 82.1486C37.9814 81.5277 38.406 80.9971 38.9508 80.6238C39.4955 80.2504 40.136 80.0511 40.7912 80.0511C41.6698 80.0511 42.5125 80.4091 43.1337 81.0463C43.755 81.6835 44.104 82.5477 44.104 83.4488V83.4488Z" fill="#FFE5D4"/>
<path d="M39.2895 81.5688C39.2939 82.8744 38.9201 84.1519 38.2156 85.2393C37.5111 86.3267 36.5076 87.175 35.3324 87.6767C34.1571 88.1784 32.8631 88.3109 31.6144 88.0573C30.3656 87.8036 29.2185 87.1754 28.3184 86.2522C27.4182 85.329 26.8057 84.1525 26.5584 82.8718C26.3111 81.5911 26.4403 80.2639 26.9294 79.0585C27.4186 77.8532 28.2457 76.824 29.306 76.1014C30.3663 75.3789 31.6119 74.9956 32.8848 75C34.5835 75 36.2125 75.6921 37.4136 76.924C38.6147 78.1559 39.2895 79.8266 39.2895 81.5688V81.5688Z" fill="#EFD3BF"/>
<path d="M37.633 77.2651C37.9567 78.0378 38.1221 78.8705 38.1189 79.7114C38.1189 81.0389 37.7254 82.335 36.9906 83.4278C36.2558 84.5206 35.2144 85.3584 34.0046 85.8302C32.7947 86.3019 31.4737 86.3853 30.2166 86.0692C28.9595 85.7531 27.8258 85.0525 26.9659 84.0604C27.5316 85.4638 28.5539 86.6228 29.8588 87.3402C31.1638 88.0577 32.6708 88.2892 34.1235 87.9955C35.5762 87.7018 36.8848 86.901 37.8266 85.7293C38.7684 84.5576 39.2854 83.0874 39.2894 81.5688C39.2727 79.974 38.6829 78.4417 37.633 77.2651V77.2651Z" fill="#DDB69B"/>
<path d="M35.027 79.7114C35.0314 80.3843 34.8408 81.0434 34.4795 81.6052C34.1182 82.1669 33.6023 82.6059 32.9974 82.8665C32.3924 83.1271 31.7257 83.1977 31.0816 83.0691C30.4375 82.9406 29.8452 82.6188 29.3797 82.1446C28.9142 81.6703 28.5965 81.065 28.4668 80.4053C28.3372 79.7456 28.4015 79.0613 28.6516 78.4391C28.9017 77.817 29.3262 77.285 29.8715 76.9106C30.4168 76.5363 31.0581 76.3364 31.7143 76.3364C32.589 76.3364 33.4283 76.6913 34.049 77.3235C34.6696 77.9558 35.0212 78.8142 35.027 79.7114V79.7114Z" fill="#FFE5D4"/>
<path d="M28.5781 86.3255C28.5781 87.6246 28.2025 88.8946 27.4987 89.9749C26.795 91.0551 25.7947 91.897 24.6244 92.3942C23.4541 92.8914 22.1663 93.0215 20.9239 92.768C19.6815 92.5145 18.5403 91.8889 17.6446 90.9703C16.7489 90.0516 16.1389 88.8812 15.8918 87.607C15.6447 86.3328 15.7715 85.012 16.2563 83.8117C16.741 82.6114 17.5619 81.5855 18.6152 80.8637C19.6684 80.142 20.9067 79.7567 22.1734 79.7567C23.8721 79.7567 25.5011 80.4488 26.7022 81.6807C27.9033 82.9125 28.5781 84.5833 28.5781 86.3255V86.3255Z" fill="#EFD3BF"/>
<path d="M26.9439 81.7953C27.3425 82.7923 27.4957 83.8746 27.3902 84.9468C27.2846 86.0189 26.9235 87.0479 26.3387 87.9432C25.7539 88.8384 24.9633 89.5723 24.0367 90.0802C23.11 90.5881 22.0758 90.8544 21.0251 90.8556C20.1185 90.8486 19.2238 90.6428 18.4011 90.2522C17.5783 89.8615 16.8465 89.295 16.2547 88.5905C16.5906 89.4956 17.1175 90.3133 17.7976 90.9851C18.4777 91.6568 19.2942 92.1661 20.1887 92.4763C21.0831 92.7865 22.0334 92.8901 22.9715 92.7795C23.9095 92.669 24.8121 92.3471 25.6147 91.8369C26.4172 91.3267 27.0999 90.6409 27.6137 89.8284C28.1276 89.016 28.4599 88.097 28.5869 87.1374C28.7139 86.1778 28.6325 85.2013 28.3485 84.2777C28.0645 83.3542 27.5848 82.5065 26.9439 81.7953V81.7953Z" fill="#DDB69B"/>
<path d="M24.3158 84.4001C24.3158 85.0731 24.1209 85.7309 23.7559 86.2901C23.3909 86.8493 22.8722 87.2848 22.2656 87.5413C21.659 87.7977 20.9918 87.8637 20.3486 87.7307C19.7054 87.5978 19.1151 87.2719 18.6527 86.7945C18.1903 86.3171 17.8766 85.7096 17.7512 85.049C17.6259 84.3884 17.6947 83.7046 17.9488 83.0842C18.2029 82.4637 18.631 81.9347 19.1787 81.5641C19.7263 81.1935 20.369 80.998 21.0251 81.0025C21.8999 81.0085 22.7368 81.3691 23.3533 82.0056C23.9698 82.6422 24.3158 83.5029 24.3158 84.4001V84.4001Z" fill="#FFE5D4"/>
<path d="M21.0251 94.9781C21.0295 96.2827 20.6563 97.5593 19.9528 98.6462C19.2492 99.7331 18.247 100.581 17.0731 101.084C15.8991 101.586 14.6062 101.72 13.3581 101.468C12.11 101.216 10.9628 100.59 10.0618 99.6695C9.16076 98.7486 8.54648 97.5742 8.29671 96.295C8.04693 95.0158 8.17291 93.6893 8.65868 92.4835C9.14445 91.2778 9.96817 90.247 11.0255 89.5217C12.0829 88.7965 13.3263 88.4093 14.5983 88.4093C16.299 88.4093 17.9303 89.1006 19.135 90.3319C20.3396 91.5631 21.0193 93.2338 21.0251 94.9781V94.9781Z" fill="#EFD3BF"/>
<path d="M19.3687 90.6292C19.9297 92.0592 19.9806 93.6464 19.5126 95.1112C19.0445 96.576 18.0874 97.8243 16.81 98.6364C15.5325 99.4485 14.0166 99.7722 12.5293 99.5505C11.042 99.3288 9.67869 98.5759 8.67951 97.4244C9.23689 98.8442 10.2602 100.02 11.5726 100.748C12.8851 101.477 14.4044 101.712 15.8681 101.414C17.3318 101.116 18.6481 100.303 19.5897 99.1154C20.5312 97.928 21.0389 96.4406 21.0251 94.9102C21.0029 93.3232 20.4135 91.7999 19.3687 90.6292V90.6292Z" fill="#DDB69B"/>
<path d="M16.7405 93.1207C16.7405 93.7937 16.5457 94.4515 16.1807 95.0107C15.8157 95.5699 15.297 96.0054 14.6903 96.2618C14.0837 96.5183 13.4165 96.5843 12.7733 96.4513C12.1301 96.3184 11.5399 95.9925 11.0774 95.5151C10.615 95.0377 10.3013 94.4301 10.176 93.7696C10.0506 93.109 10.1194 92.4252 10.3735 91.8047C10.6277 91.1843 11.0557 90.6553 11.6034 90.2847C12.1511 89.9141 12.7937 89.7186 13.4498 89.7231C13.8838 89.7231 14.3136 89.8111 14.7143 89.9822C15.1149 90.1532 15.4787 90.4038 15.7846 90.7196C16.0904 91.0354 16.3323 91.4101 16.4964 91.8222C16.6605 92.2343 16.7434 92.6756 16.7405 93.1207V93.1207Z" fill="#FFE5D4"/>
<path d="M16.5639 106.258C16.5683 107.563 16.1951 108.839 15.4916 109.926C14.788 111.013 13.7859 111.862 12.6119 112.364C11.438 112.866 10.1451 113 8.89693 112.748C7.64881 112.497 6.50161 111.871 5.60059 110.95C4.69958 110.029 4.08529 108.854 3.83552 107.575C3.58574 106.296 3.71172 104.969 4.19749 103.764C4.68326 102.558 5.50698 101.527 6.56433 100.802C7.62169 100.077 8.86511 99.6895 10.1371 99.6895C11.8378 99.6894 13.4691 100.381 14.6738 101.612C15.8784 102.843 16.5581 104.514 16.5639 106.258V106.258Z" fill="#EFD3BF"/>
<path d="M14.9075 101.909C15.4685 103.339 15.5194 104.926 15.0514 106.391C14.5833 107.856 13.6262 109.104 12.3488 109.916C11.0713 110.729 9.55545 111.052 8.06814 110.831C6.58082 110.609 5.21751 109.856 4.21833 108.704C4.77571 110.124 5.79898 111.3 7.11146 112.028C8.42393 112.757 9.9432 112.992 11.4069 112.694C12.8707 112.396 14.1869 111.583 15.1285 110.395C16.07 109.208 16.5777 107.721 16.5639 106.19C16.5418 104.603 15.9523 103.08 14.9075 101.909V101.909Z" fill="#DDB69B"/>
<path d="M12.2793 104.446C12.2793 105.119 12.0845 105.777 11.7195 106.336C11.3545 106.895 10.8358 107.331 10.2292 107.587C9.62255 107.844 8.95532 107.91 8.31211 107.777C7.6689 107.644 7.07867 107.318 6.61627 106.841C6.15386 106.363 5.8401 105.756 5.71478 105.095C5.58947 104.434 5.65823 103.751 5.91235 103.13C6.16648 102.51 6.59452 101.981 7.1422 101.61C7.68988 101.239 8.33253 101.044 8.98866 101.049C9.42266 101.049 9.85238 101.137 10.2531 101.308C10.6538 101.479 11.0175 101.729 11.3234 102.045C11.6292 102.361 11.8712 102.736 12.0352 103.148C12.1993 103.56 12.2823 104.001 12.2793 104.446V104.446Z" fill="#FFE5D4"/>
<path d="M14.5983 117.131C14.5983 118.43 14.2226 119.7 13.5189 120.78C12.8151 121.86 11.8148 122.702 10.6445 123.199C9.47424 123.697 8.18647 123.827 6.94408 123.573C5.70169 123.32 4.56048 122.694 3.66477 121.775C2.76906 120.857 2.15907 119.686 1.91195 118.412C1.66482 117.138 1.79165 115.817 2.2764 114.617C2.76116 113.417 3.58207 112.391 4.63532 111.669C5.68857 110.947 6.92685 110.562 8.19358 110.562C9.89221 110.562 11.5213 111.254 12.7224 112.486C13.9235 113.718 14.5983 115.388 14.5983 117.131V117.131Z" fill="#EFD3BF"/>
<path d="M12.964 112.759C13.4931 114.185 13.5219 115.755 13.0454 117.2C12.5689 118.645 11.6168 119.875 10.3525 120.679C9.0882 121.483 7.59057 121.81 6.11662 121.605C4.64268 121.4 3.28435 120.675 2.27476 119.554C2.61066 120.459 3.13752 121.277 3.81763 121.949C4.49773 122.621 5.31424 123.13 6.2087 123.44C7.10316 123.75 8.05343 123.854 8.99148 123.743C9.92953 123.633 10.8321 123.311 11.6347 122.801C12.4373 122.29 13.1199 121.605 13.6337 120.792C14.1476 119.98 14.4799 119.061 14.6069 118.101C14.734 117.142 14.6525 116.165 14.3685 115.241C14.0845 114.318 13.6048 113.47 12.964 112.759V112.759Z" fill="#DDB69B"/>
<path d="M10.3358 115.273C10.3358 115.946 10.1409 116.604 9.77594 117.163C9.41095 117.722 8.89225 118.158 8.28564 118.414C7.67902 118.671 7.0118 118.737 6.36859 118.604C5.72538 118.471 5.13514 118.145 4.67274 117.668C4.21033 117.19 3.89657 116.583 3.77126 115.922C3.64594 115.261 3.7147 114.578 3.96883 113.957C4.22295 113.337 4.65099 112.808 5.19867 112.437C5.74635 112.067 6.389 111.871 7.04513 111.876C7.9199 111.882 8.75686 112.242 9.37336 112.879C9.98985 113.515 10.3358 114.376 10.3358 115.273V115.273Z" fill="#FFE5D4"/>
<path d="M8.98862 136.18C5.4514 136.18 2.58392 133.239 2.58392 129.611C2.58392 125.983 5.4514 123.042 8.98862 123.042C12.5258 123.042 15.3933 125.983 15.3933 129.611C15.3933 133.239 12.5258 136.18 8.98862 136.18Z" fill="#EFD3BF"/>
<path d="M13.8253 125.24C14.1413 126.039 14.3062 126.892 14.3112 127.754C14.3089 129.083 13.9137 130.38 13.1777 131.473C12.4418 132.567 11.3996 133.406 10.189 133.88C8.97832 134.354 7.65608 134.439 6.39686 134.126C5.13763 133.813 4.00065 133.115 3.13607 132.125C3.70248 133.531 4.72663 134.691 6.03386 135.408C7.34109 136.125 8.85044 136.355 10.3045 136.058C11.7585 135.762 13.0671 134.957 14.0072 133.781C14.9473 132.606 15.4606 131.132 15.4596 129.611C15.437 128.001 14.8578 126.452 13.8253 125.24V125.24Z" fill="#DDB69B"/>
<path d="M11.1309 127.754C11.1353 128.427 10.9447 129.086 10.5834 129.648C10.222 130.209 9.70619 130.648 9.10126 130.909C8.49633 131.17 7.82955 131.24 7.18549 131.112C6.54143 130.983 5.94909 130.661 5.48357 130.187C5.01806 129.713 4.70035 129.107 4.57073 128.448C4.4411 127.788 4.5054 127.104 4.75548 126.482C5.00555 125.859 5.43013 125.327 5.97538 124.953C6.52063 124.579 7.16199 124.379 7.81813 124.379C8.69292 124.379 9.53221 124.734 10.1528 125.366C10.7735 125.998 11.1251 126.857 11.1309 127.754Z" fill="#FFE5D4"/>
<path d="M87.5456 166.238C87.55 167.542 87.1768 168.819 86.4733 169.906C85.7697 170.993 84.7675 171.841 83.5936 172.343C82.4197 172.846 81.1267 172.98 79.8786 172.728C78.6305 172.476 77.4833 171.85 76.5823 170.929C75.6813 170.008 75.067 168.834 74.8172 167.555C74.5674 166.275 74.6934 164.949 75.1792 163.743C75.665 162.537 76.4887 161.507 77.546 160.781C78.6034 160.056 79.8468 159.669 81.1188 159.669C81.9618 159.666 82.797 159.834 83.5766 160.162C84.3562 160.491 85.0648 160.975 85.6619 161.585C86.259 162.195 86.7327 162.92 87.056 163.719C87.3792 164.517 87.5456 165.373 87.5456 166.238V166.238Z" fill="#EFD3BF"/>
<path d="M85.8891 161.889C86.2877 162.886 86.4409 163.968 86.3354 165.04C86.2298 166.112 85.8687 167.141 85.2839 168.037C84.6991 168.932 83.9085 169.666 82.9819 170.174C82.0552 170.681 81.021 170.948 79.9703 170.949C79.0644 170.938 78.1711 170.73 77.349 170.34C76.5269 169.949 75.7945 169.385 75.1999 168.684C75.7758 170.08 76.8035 171.23 78.1097 171.94C79.4158 172.65 80.9207 172.877 82.3707 172.581C83.8206 172.286 85.127 171.487 86.0696 170.319C87.0123 169.151 87.5335 167.686 87.5455 166.17C87.5234 164.583 86.9339 163.059 85.8891 161.889V161.889Z" fill="#DDB69B"/>
<path d="M83.261 164.38C83.2786 165.057 83.0988 165.723 82.7447 166.294C82.3905 166.865 81.8782 167.315 81.2733 167.585C80.6684 167.856 79.9986 167.935 79.3496 167.812C78.7007 167.69 78.1022 167.371 77.6309 166.898C77.1596 166.424 76.8369 165.817 76.7043 165.154C76.5716 164.491 76.6351 163.802 76.8864 163.177C77.1377 162.551 77.5655 162.016 78.115 161.642C78.6644 161.267 79.3105 161.069 79.9703 161.073C80.8317 161.073 81.6588 161.419 82.2741 162.038C82.8894 162.656 83.2437 163.497 83.261 164.38V164.38Z" fill="#FFE5D4"/>
<path d="M76.8121 167.28C76.8121 168.579 76.4365 169.849 75.7327 170.929C75.029 172.009 74.0287 172.851 72.8584 173.348C71.6881 173.845 70.4003 173.976 69.1579 173.722C67.9156 173.469 66.7743 172.843 65.8786 171.924C64.9829 171.006 64.3729 169.835 64.1258 168.561C63.8787 167.287 64.0055 165.966 64.4903 164.766C64.975 163.566 65.7959 162.54 66.8492 161.818C67.9024 161.096 69.1407 160.711 70.4074 160.711C72.1061 160.711 73.7351 161.403 74.9362 162.635C76.1374 163.867 76.8121 165.537 76.8121 167.28V167.28Z" fill="#EFD3BF"/>
<path d="M75.1778 162.908C75.707 164.334 75.7358 165.904 75.2593 167.349C74.7828 168.794 73.8307 170.024 72.5664 170.828C71.3021 171.632 69.8044 171.959 68.3305 171.754C66.8565 171.549 65.4982 170.824 64.4886 169.703C64.8245 170.608 65.3514 171.426 66.0315 172.098C66.7116 172.769 67.5281 173.279 68.4226 173.589C69.317 173.899 70.2673 174.003 71.2054 173.892C72.1434 173.782 73.046 173.46 73.8486 172.95C74.6511 172.439 75.3338 171.754 75.8476 170.941C76.3614 170.129 76.6938 169.21 76.8208 168.25C76.9478 167.29 76.8664 166.314 76.5824 165.39C76.2983 164.467 75.8187 163.619 75.1778 162.908V162.908Z" fill="#DDB69B"/>
<path d="M72.5497 165.422C72.5497 166.095 72.3548 166.753 71.9898 167.312C71.6248 167.871 71.1061 168.307 70.4995 168.563C69.8929 168.82 69.2257 168.886 68.5825 168.753C67.9392 168.62 67.349 168.294 66.8866 167.817C66.4242 167.339 66.1104 166.732 65.9851 166.071C65.8598 165.411 65.9286 164.727 66.1827 164.106C66.4368 163.486 66.8649 162.957 67.4125 162.586C67.9602 162.216 68.6029 162.02 69.259 162.025C70.1338 162.031 70.9707 162.391 71.5872 163.028C72.2037 163.664 72.5497 164.525 72.5497 165.422V165.422Z" fill="#FFE5D4"/>
<path d="M96.0925 120.845C92.5553 120.845 89.6878 117.904 89.6878 114.277C89.6878 110.649 92.5553 107.708 96.0925 107.708C99.6297 107.708 102.497 110.649 102.497 114.277C102.497 117.904 99.6297 120.845 96.0925 120.845Z" fill="#EFD3BF"/>
<path d="M100.863 109.905C101.179 110.704 101.344 111.557 101.349 112.419C101.347 113.748 100.951 115.045 100.215 116.139C99.4794 117.233 98.4372 118.072 97.2266 118.545C96.0159 119.019 94.6937 119.105 93.4345 118.792C92.1752 118.478 91.0383 117.781 90.1737 116.791C90.5096 117.696 91.0364 118.514 91.7166 119.185C92.3967 119.857 93.2132 120.366 94.1076 120.677C95.0021 120.987 95.9524 121.09 96.8904 120.98C97.8285 120.869 98.7311 120.547 99.5336 120.037C100.336 119.527 101.019 118.841 101.533 118.029C102.047 117.216 102.379 116.297 102.506 115.338C102.633 114.378 102.551 113.402 102.267 112.478C101.983 111.555 101.504 110.707 100.863 109.996V109.905Z" fill="#DDB69B"/>
<path d="M98.2348 112.419C98.2261 113.09 98.0238 113.743 97.6536 114.297C97.2833 114.85 96.7616 115.278 96.1543 115.528C95.547 115.777 94.8812 115.837 94.2409 115.699C93.6007 115.561 93.0146 115.231 92.5566 114.752C92.0986 114.273 91.7892 113.666 91.6675 113.006C91.5457 112.347 91.617 111.665 91.8723 111.048C92.1277 110.43 92.5557 109.904 93.1024 109.535C93.649 109.166 94.2899 108.972 94.9441 108.976C95.381 108.979 95.8131 109.071 96.2154 109.246C96.6176 109.421 96.9822 109.675 97.288 109.995C97.5939 110.315 97.835 110.694 97.9975 111.11C98.16 111.526 98.2406 111.971 98.2348 112.419V112.419Z" fill="#FFE5D4"/>
<path d="M93.3319 110.539C93.3319 111.838 92.9563 113.108 92.2525 114.189C91.5488 115.269 90.5485 116.111 89.3782 116.608C88.2079 117.105 86.9201 117.235 85.6777 116.982C84.4353 116.728 83.2941 116.103 82.3984 115.184C81.5027 114.265 80.8927 113.095 80.6456 111.821C80.3985 110.546 80.5253 109.226 81.01 108.025C81.4948 106.825 82.3157 105.799 83.369 105.077C84.4222 104.356 85.6605 103.97 86.9272 103.97C88.6258 103.97 90.2549 104.663 91.456 105.894C92.6571 107.126 93.3319 108.797 93.3319 110.539V110.539Z" fill="#EFD3BF"/>
<path d="M91.7859 106.19C92.1844 107.187 92.3377 108.27 92.2321 109.342C92.1266 110.414 91.7655 111.443 91.1806 112.338C90.5958 113.233 89.8052 113.967 88.8786 114.475C87.952 114.983 86.9177 115.249 85.8671 115.251C84.96 115.246 84.0644 115.042 83.2412 114.651C82.418 114.26 81.6866 113.692 81.0967 112.985C81.6911 114.333 82.7116 115.436 83.9931 116.115C85.2746 116.793 86.742 117.009 88.1577 116.726C89.5734 116.443 90.8545 115.678 91.7935 114.555C92.7325 113.432 93.2746 112.017 93.3318 110.539C93.3584 108.943 92.8077 107.394 91.7859 106.19V106.19Z" fill="#DDB69B"/>
<path d="M89.1578 108.704C89.1577 109.377 88.9629 110.035 88.5979 110.594C88.2329 111.154 87.7142 111.589 87.1076 111.846C86.501 112.102 85.8337 112.168 85.1905 112.035C84.5473 111.902 83.9571 111.576 83.4947 111.099C83.0323 110.621 82.7185 110.014 82.5932 109.353C82.4679 108.693 82.5366 108.009 82.7908 107.388C83.0449 106.768 83.4729 106.239 84.0206 105.868C84.5683 105.498 85.2109 105.302 85.8671 105.307C86.3011 105.307 86.7308 105.395 87.1315 105.566C87.5322 105.737 87.8959 105.988 88.2018 106.303C88.5076 106.619 88.7496 106.994 88.9136 107.406C89.0777 107.818 89.1607 108.259 89.1578 108.704V108.704Z" fill="#FFE5D4"/>
<path d="M82.7089 115.228C82.7089 116.527 82.3332 117.797 81.6295 118.877C80.9257 119.958 79.9254 120.799 78.7551 121.297C77.5848 121.794 76.2971 121.924 75.0547 121.67C73.8123 121.417 72.6711 120.791 71.7754 119.873C70.8796 118.954 70.2697 117.784 70.0225 116.509C69.7754 115.235 69.9022 113.914 70.387 112.714C70.8718 111.514 71.6927 110.488 72.7459 109.766C73.7992 109.044 75.0374 108.659 76.3042 108.659C78.0028 108.659 79.6319 109.351 80.833 110.583C82.0341 111.815 82.7089 113.486 82.7089 115.228V115.228Z" fill="#EFD3BF"/>
<path d="M81.0746 110.856C81.3906 111.655 81.5555 112.508 81.5604 113.371C81.5582 114.699 81.163 115.996 80.427 117.09C79.691 118.184 78.6489 119.023 77.4383 119.497C76.2276 119.97 74.9054 120.056 73.6461 119.743C72.3869 119.43 71.2499 118.732 70.3854 117.742C70.7213 118.647 71.2481 119.465 71.9282 120.137C72.6083 120.808 73.4248 121.318 74.3193 121.628C75.2138 121.938 76.164 122.042 77.1021 121.931C78.0401 121.821 78.9427 121.499 79.7453 120.989C80.5479 120.478 81.2305 119.793 81.7443 118.98C82.2582 118.168 82.5905 117.249 82.7175 116.289C82.8446 115.329 82.7631 114.353 82.4791 113.429C82.1951 112.506 81.7154 111.658 81.0746 110.947V110.856Z" fill="#DDB69B"/>
<path d="M78.4465 113.371C78.4508 114.044 78.2597 114.704 77.8974 115.267C77.535 115.829 77.0179 116.268 76.4117 116.528C75.8054 116.788 75.1375 116.857 74.4929 116.727C73.8482 116.596 73.2559 116.272 72.7913 115.796C72.3266 115.319 72.0107 114.712 71.8836 114.05C71.7565 113.389 71.8239 112.704 72.0774 112.082C72.3309 111.461 72.7589 110.93 73.307 110.559C73.8552 110.187 74.4987 109.991 75.1558 109.996C76.0267 110.001 76.8604 110.359 77.4762 110.991C78.0921 111.622 78.4407 112.477 78.4465 113.371V113.371Z" fill="#FFE5D4"/>
<path d="M68.7511 130.54C65.2139 130.54 62.3464 127.599 62.3464 123.971C62.3464 120.343 65.2139 117.402 68.7511 117.402C72.2883 117.402 75.1558 120.343 75.1558 123.971C75.1558 127.599 72.2883 130.54 68.7511 130.54Z" fill="#EFD3BF"/>
<path d="M73.4552 119.599C74.0162 121.03 74.0671 122.617 73.599 124.082C73.131 125.546 72.1739 126.795 70.8965 127.607C69.619 128.419 68.1031 128.743 66.6158 128.521C65.1285 128.299 63.7652 127.546 62.766 126.395C63.3227 127.813 64.3441 128.987 65.6543 129.715C66.9644 130.444 68.4813 130.681 69.9436 130.386C71.4059 130.091 72.7221 129.282 73.6654 128.099C74.6087 126.915 75.1201 125.432 75.1116 123.903C75.0927 122.309 74.5032 120.777 73.4552 119.599V119.599Z" fill="#DDB69B"/>
<path d="M70.8933 122.114C70.8933 122.786 70.699 123.443 70.335 124.001C69.971 124.56 69.4536 124.996 68.8483 125.253C68.2429 125.51 67.5769 125.577 66.9342 125.446C66.2916 125.315 65.7014 124.991 65.2381 124.516C64.7748 124.041 64.4592 123.436 64.3314 122.777C64.2036 122.118 64.2692 121.434 64.5199 120.814C64.7707 120.193 65.1953 119.662 65.7401 119.289C66.2848 118.915 66.9253 118.716 67.5805 118.716C68.4591 118.716 69.3018 119.074 69.923 119.711C70.5443 120.349 70.8933 121.213 70.8933 122.114V122.114Z" fill="#FFE5D4"/>
<path d="M70.6945 135.251C70.6945 136.556 70.317 137.831 69.6099 138.916C68.9027 140 67.8977 140.845 66.7221 141.343C65.5464 141.841 64.2531 141.97 63.0058 141.714C61.7585 141.458 60.6134 140.828 59.7155 139.904C58.8176 138.98 58.2073 137.803 57.9618 136.523C57.7163 135.243 57.8467 133.917 58.3365 132.713C58.8264 131.509 59.6535 130.481 60.7133 129.76C61.7731 129.038 63.0178 128.655 64.2898 128.66C65.1328 128.66 65.9674 128.83 66.7459 129.162C67.5244 129.494 68.2315 129.979 68.8265 130.592C69.4215 131.204 69.8928 131.931 70.2134 132.731C70.5339 133.53 70.6974 134.387 70.6945 135.251V135.251Z" fill="#EFD3BF"/>
<path d="M69.0382 130.88C69.5992 132.31 69.6501 133.897 69.182 135.362C68.714 136.826 67.7569 138.075 66.4795 138.887C65.202 139.699 63.6861 140.023 62.1988 139.801C60.7115 139.579 59.3482 138.826 58.349 137.675C58.9057 139.093 59.9272 140.267 61.2373 140.996C62.5475 141.724 64.0643 141.961 65.5266 141.666C66.9889 141.371 68.3051 140.562 69.2484 139.379C70.1917 138.195 70.7032 136.712 70.6946 135.183C70.6758 133.589 70.0863 132.057 69.0382 130.88V130.88Z" fill="#DDB69B"/>
<path d="M66.4321 133.394C66.4321 134.066 66.2378 134.723 65.8738 135.282C65.5098 135.84 64.9924 136.276 64.3871 136.533C63.7818 136.79 63.1157 136.857 62.4731 136.726C61.8305 136.595 61.2402 136.272 60.7769 135.796C60.3136 135.321 59.9981 134.716 59.8702 134.057C59.7424 133.398 59.808 132.715 60.0588 132.094C60.3095 131.473 60.7341 130.942 61.2789 130.569C61.8237 130.196 62.4642 129.996 63.1194 129.996C63.998 129.996 64.8406 130.354 65.4618 130.991C66.0831 131.629 66.4321 132.493 66.4321 133.394Z" fill="#FFE5D4"/>
<path d="M68.7511 146.101C68.7553 147.409 68.3798 148.69 67.6723 149.778C66.9648 150.867 65.9573 151.715 64.7782 152.215C63.5991 152.715 62.3017 152.843 61.0512 152.584C59.8007 152.325 58.6537 151.69 57.7563 150.76C56.8589 149.83 56.2517 148.647 56.012 147.361C55.7723 146.076 55.9109 144.747 56.4103 143.543C56.9097 142.339 57.7471 141.315 58.816 140.6C59.885 139.886 61.137 139.514 62.4126 139.532C64.0997 139.55 65.7118 140.25 66.8987 141.48C68.0855 142.71 68.7512 144.371 68.7511 146.101V146.101Z" fill="#EFD3BF"/>
<path d="M67.0947 141.729C67.4107 142.528 67.5756 143.382 67.5806 144.244C67.5783 145.573 67.1831 146.869 66.4471 147.963C65.7112 149.057 64.6691 149.896 63.4584 150.37C62.2477 150.843 60.9255 150.929 59.6663 150.616C58.407 150.303 57.2701 149.605 56.4055 148.615C56.7414 149.52 57.2683 150.338 57.9484 151.01C58.6285 151.682 59.445 152.191 60.3394 152.501C61.2339 152.811 62.1842 152.915 63.1222 152.804C64.0603 152.694 64.9629 152.372 65.7654 151.862C66.568 151.351 67.2506 150.666 67.7645 149.853C68.2783 149.041 68.6106 148.122 68.7377 147.162C68.8647 146.203 68.7833 145.226 68.4992 144.302C68.2152 143.379 67.7356 142.531 67.0947 141.82V141.729Z" fill="#DDB69B"/>
<path d="M61.1759 147.641C59.3463 147.641 57.8631 146.12 57.8631 144.244C57.8631 142.367 59.3463 140.846 61.1759 140.846C63.0055 140.846 64.4886 142.367 64.4886 144.244C64.4886 146.12 63.0055 147.641 61.1759 147.641Z" fill="#FFE5D4"/>
<path d="M69.524 158.582C69.524 159.881 69.1484 161.151 68.4447 162.231C67.7409 163.311 66.7406 164.153 65.5703 164.65C64.4 165.148 63.1122 165.278 61.8699 165.024C60.6275 164.771 59.4863 164.145 58.5905 163.226C57.6948 162.308 57.0848 161.137 56.8377 159.863C56.5906 158.589 56.7174 157.268 57.2022 156.068C57.6869 154.868 58.5078 153.842 59.5611 153.12C60.6143 152.398 61.8526 152.013 63.1194 152.013C64.818 152.013 66.447 152.705 67.6482 153.937C68.8493 155.169 69.524 156.84 69.524 158.582Z" fill="#EFD3BF"/>
<path d="M67.8897 154.278C68.4189 155.704 68.4477 157.274 67.9712 158.719C67.4947 160.164 66.5426 161.394 65.2783 162.198C64.014 163.002 62.5163 163.329 61.0424 163.124C59.5685 162.919 58.2101 162.194 57.2005 161.073C57.7669 162.478 58.7911 163.638 60.0983 164.356C61.4056 165.073 62.9149 165.303 64.3689 165.006C65.8229 164.709 67.1316 163.905 68.0717 162.729C69.0118 161.553 69.5251 160.079 69.524 158.559C69.51 156.975 68.9283 155.451 67.8897 154.278Z" fill="#DDB69B"/>
<path d="M65.2616 156.724C65.266 157.398 65.0749 158.058 64.7125 158.62C64.3502 159.183 63.8331 159.622 63.2268 159.882C62.6206 160.141 61.9527 160.211 61.3081 160.08C60.6634 159.95 60.0711 159.626 59.6065 159.149C59.1418 158.673 58.8259 158.065 58.6988 157.404C58.5716 156.743 58.6391 156.058 58.8926 155.436C59.146 154.814 59.5741 154.284 60.1222 153.912C60.6704 153.541 61.3139 153.345 61.971 153.349C62.8419 153.355 63.6756 153.713 64.2914 154.344C64.9073 154.976 65.2559 155.831 65.2616 156.724V156.724Z" fill="#FFE5D4"/>
</g>
<g clip-path="url(#clip2_81_4)">
<path d="M262 148.536H289.859L330.895 124.741C333.243 123.427 335.865 122.684 338.55 122.572C341.235 122.46 343.909 122.983 346.357 124.097L407.201 159.37H435.06V178.434C434.817 179.433 434.352 180.365 433.701 181.16C433.05 181.955 432.229 182.592 431.299 183.025L366.249 220.789C363.903 222.109 361.281 222.856 358.594 222.968C355.908 223.08 353.233 222.554 350.787 221.432L264.674 171.491C263.904 171.156 263.238 170.617 262.747 169.932C262.257 169.247 261.96 168.441 261.889 167.6V167.6L262 148.536Z" fill="#D4D4D4"/>
<path d="M264.674 153.043L350.787 202.984C353.235 204.099 355.909 204.621 358.594 204.51C361.279 204.398 363.901 203.655 366.249 202.34L431.383 164.549C435.952 161.749 436.453 157.886 432.497 155.562L346.385 105.621C343.937 104.506 341.263 103.984 338.578 104.096C335.893 104.208 333.271 104.951 330.923 106.265L265.789 144.057C261.22 146.716 260.718 150.72 264.674 153.043Z" fill="#C0C0C0"/>
<path d="M357.501 202.06C355.572 202.14 353.655 201.726 351.929 200.857L265.9 150.887C265.371 150.58 264.452 149.936 264.452 149.124C264.452 148.312 265.12 147.276 267.015 146.184L332.149 108.393C334.459 107.14 337.046 106.495 339.671 106.517C341.602 106.446 343.52 106.87 345.243 107.749L431.272 157.69C431.801 158.026 432.72 158.67 432.72 159.482C432.72 160.293 432.052 161.329 430.157 162.421L365.023 200.213C362.71 201.455 360.123 202.091 357.501 202.06V202.06Z" fill="#444444"/>
<path d="M345.187 110.94C343.464 110.061 341.546 109.637 339.615 109.708C336.991 109.687 334.403 110.332 332.093 111.584L266.959 149.376C266.368 149.701 265.824 150.106 265.343 150.58C265.088 150.422 264.871 150.21 264.708 149.958C264.544 149.706 264.437 149.422 264.396 149.124C264.396 148.424 265.065 147.276 266.959 146.184L332.149 108.393C334.459 107.14 337.046 106.495 339.671 106.517C341.602 106.446 343.52 106.87 345.243 107.749L431.272 157.69C431.801 158.026 432.72 158.67 432.72 159.482C432.625 160.157 432.289 160.774 431.773 161.217L431.272 160.881L345.187 110.94Z" fill="#929493"/>
<path d="M387.533 4.67513L470.804 55.0643L442.499 76.4797L396.726 41.4032C392.074 65.674 374.077 92.2403 352.486 104.95V6.97064C353.765 5.96871 355.095 5.03432 356.47 4.17124C368.282 -2.21138 380.095 -0.699708 387.533 4.67513Z" fill="#D4D4D4"/>
<path d="M435.813 57.2197C460.83 43.0827 481 53.1886 481 79.9508C481 106.713 460.83 140.194 435.813 155.087V57.2197Z" fill="#929493"/>
<path d="M442.889 146.353L358.977 97.9789C356.875 96.4686 355.155 94.4838 353.955 92.1842C352.755 89.8845 352.109 87.334 352.068 84.7378V11.0016C352.068 5.90674 354.52 4.42306 358.309 6.63458L441.579 54.7842C443.665 56.3083 445.372 58.2967 446.566 60.5938C447.759 62.8909 448.408 65.4345 448.461 68.0254V142.181C448.461 147.276 446.706 148.564 442.889 146.353Z" fill="#929493"/>
<path d="M393.801 90.1126C386.586 95.1795 379.454 100.47 372.21 105.481L358.977 97.9789C356.875 96.4686 355.155 94.4838 353.955 92.1842C352.755 89.8845 352.109 87.334 352.068 84.7378V11.0016C352.068 5.90674 354.52 4.42306 358.309 6.63458L441.162 54.5323C427.817 60.9709 410.182 78.6631 393.801 90.1126Z" fill="#D4D4D4"/>
<path d="M447.04 147.052L436.147 154.723L429.572 148.648L438.431 140.726L447.04 147.052Z" fill="#929493"/>
<path d="M353.768 6.07471L342.986 13.7171L348.084 21.8633L358.949 15.5087L353.768 6.07471Z" fill="#D4D4D4"/>
<path d="M431.857 154.135L347.945 105.621C345.843 104.111 344.123 102.126 342.923 99.8265C341.723 97.5268 341.077 94.9764 341.036 92.3801V18.7839C341.036 13.661 343.488 12.2054 347.304 14.4169L430.547 62.5665C432.647 64.0767 434.364 66.0621 435.56 68.3623C436.755 70.6625 437.395 73.2129 437.428 75.8077V149.964C437.428 155.059 435.673 156.346 431.857 154.135Z" fill="#C0C0C0"/>
<path d="M430.018 150.496L350.453 104.501C348.47 103.065 346.848 101.183 345.717 99.0057C344.585 96.8285 343.974 94.4161 343.933 91.9601V22.1992C343.933 17.3562 346.246 15.9565 349.84 18.0561L428.764 63.6862C430.747 65.1231 432.368 67.0049 433.5 69.182C434.632 71.3592 435.242 73.7716 435.283 76.2275V146.52C435.283 151.363 433.64 152.595 430.018 150.496Z" fill="#D4D4D4"/>
<path d="M345.521 15.9286L353.879 20.8276V85.6616C353.943 87.7633 354.477 89.8235 355.441 91.6894C356.406 93.5552 357.776 95.1787 359.451 96.4393L435.283 140.446V149.6C435.283 151.307 434.615 153.183 432.943 152.231L348.67 103.326C346.995 102.065 345.624 100.442 344.66 98.5759C343.695 96.71 343.161 94.6498 343.098 92.5481V18.5601C343.181 16.7964 343.85 15.1728 345.521 15.9286Z" fill="#444444"/>
<path d="M395.723 44.7904C390.152 67.9414 372.907 92.3801 352.514 104.613V20.0437C352.514 20.0437 389.873 41.5431 395.723 44.7904Z" fill="#929493"/>
<path d="M345.521 15.9286L353.879 20.8276V85.6616C353.943 87.7632 354.477 89.8235 355.441 91.6893C356.406 93.5552 357.776 95.1787 359.451 96.4393L362.014 97.923L351.79 105.117L348.697 103.326C347.023 102.065 345.652 100.442 344.688 98.5758C343.723 96.71 343.189 94.6498 343.126 92.5481V18.5601C343.181 16.7964 343.85 15.1728 345.521 15.9286Z" fill="#444444"/>
<path d="M405.251 140.67C405.251 141.733 405.892 142.237 406.7 141.761C407.138 141.438 407.494 141.017 407.741 140.531C407.987 140.045 408.117 139.508 408.121 138.962C408.121 137.898 407.48 137.422 406.7 137.87C406.256 138.189 405.893 138.608 405.641 139.095C405.389 139.582 405.255 140.121 405.251 140.67V140.67Z" fill="#444444"/>
<path d="M407.647 137.842L423.666 147.136L421.827 151.167L405.669 141.789L407.647 137.842Z" fill="#444444"/>
<path d="M421.326 149.992C421.326 151.055 421.995 151.559 422.775 151.083C423.224 150.77 423.591 150.351 423.843 149.864C424.096 149.376 424.226 148.834 424.223 148.284C424.223 147.192 423.583 146.716 422.775 147.164C422.331 147.49 421.97 147.915 421.718 148.406C421.467 148.897 421.332 149.44 421.326 149.992V149.992Z" fill="#444444"/>
<path d="M353.851 110.716C353.851 111.78 354.492 112.284 355.272 111.808C355.718 111.491 356.082 111.072 356.334 110.585C356.586 110.098 356.719 109.557 356.721 109.009C356.721 107.945 356.08 107.469 355.272 107.917C354.836 108.241 354.481 108.663 354.234 109.149C353.988 109.634 353.857 110.171 353.851 110.716V110.716Z" fill="#444444"/>
<path d="M356.247 107.889L372.266 117.183L370.427 121.214L354.269 111.836L356.247 107.889Z" fill="#444444"/>
<path d="M369.926 120.038C369.926 121.102 370.567 121.606 371.375 121.13C371.824 120.817 372.191 120.398 372.443 119.91C372.696 119.422 372.826 118.88 372.823 118.331C372.823 117.267 372.183 116.791 371.375 117.239C370.93 117.557 370.567 117.977 370.315 118.464C370.064 118.95 369.93 119.49 369.926 120.038V120.038Z" fill="#444444"/>
<path d="M320.838 143.917L368.366 171.491C369.317 171.912 370.352 172.108 371.39 172.064C372.428 172.021 373.443 171.738 374.356 171.239V171.239C376.111 170.203 376.306 168.636 374.773 167.74L327.413 140.194C326.46 139.76 325.42 139.557 324.374 139.6C323.329 139.644 322.309 139.934 321.396 140.446V140.446C319.418 141.454 319.418 143.021 320.838 143.917Z" fill="#2D2D2D"/>
<path d="M352.848 175.242C350.03 175.171 347.28 174.35 344.881 172.863C334.684 166.928 326.689 151.671 326.689 138.122C326.689 130.62 329.28 124.825 333.765 122.222C335.894 121.146 338.273 120.666 340.651 120.833C343.029 121.001 345.317 121.809 347.277 123.173C357.473 129.108 365.469 144.365 365.469 157.914C365.469 165.416 362.905 171.211 358.392 173.815C356.703 174.776 354.79 175.269 352.848 175.242V175.242ZM339.337 125.525C338.214 125.518 337.109 125.808 336.133 126.365C333.152 128.1 331.453 132.384 331.453 138.122C331.453 149.936 338.557 163.653 347.277 168.72C348.527 169.629 349.995 170.191 351.531 170.348C353.067 170.505 354.617 170.253 356.024 169.616C359.005 167.88 360.705 163.597 360.705 157.858C360.705 146.073 353.628 132.328 344.881 127.289C343.223 126.236 341.323 125.628 339.365 125.525H339.337Z" fill="#F29B00"/>
<path d="M355.3 123.005C353.336 120.209 350.496 118.155 347.234 117.171C343.972 116.187 340.475 116.329 337.303 117.575C333.148 119.848 330.033 123.651 328.611 128.184C330.979 123.817 336.746 121.522 344.351 123.761C347.722 124.741 349.923 130.032 353.935 128.94C356.972 128.184 356.888 125.665 355.3 123.005Z" fill="#F7AE1C"/>
<path d="M342.791 115.867C339.838 118.666 344.602 121.186 348.92 124.489C353.712 128.156 355.272 130.648 358.559 137.087C360.426 140.698 363.992 149.376 363.992 149.376C364.795 141.673 363.714 133.889 360.844 126.701C356.359 116.007 346.106 112.816 342.791 115.867Z" fill="#FFBA40"/>
<path d="M339.448 116.679C340.005 117.687 339.114 119.282 337.414 120.262C335.715 121.242 333.904 121.214 333.319 120.262C332.734 119.31 333.653 117.659 335.353 116.679C337.052 115.699 338.919 115.671 339.448 116.679Z" fill="white"/>
<path d="M354.158 120.178C353.477 120.827 352.606 121.238 351.674 121.348C350.742 121.459 349.799 121.263 348.987 120.79C348.175 120.318 347.537 119.594 347.168 118.726C346.8 117.859 346.72 116.895 346.942 115.979C347.623 115.33 348.494 114.919 349.426 114.809C350.358 114.698 351.301 114.894 352.113 115.367C352.925 115.839 353.563 116.563 353.932 117.431C354.3 118.298 354.38 119.262 354.158 120.178Z" fill="white"/>
<path d="M359.813 130.116C359.233 130.65 358.5 130.988 357.719 131.082C356.938 131.176 356.146 131.021 355.457 130.639C354.768 130.258 354.215 129.668 353.877 128.954C353.538 128.24 353.431 127.438 353.571 126.66C353.71 125.881 354.089 125.167 354.655 124.616C355.22 124.066 355.942 123.707 356.721 123.591C357.499 123.475 358.294 123.607 358.994 123.969C359.694 124.331 360.263 124.905 360.621 125.609C361.099 126.317 361.282 127.186 361.131 128.028C360.98 128.87 360.507 129.62 359.813 130.116V130.116Z" fill="white"/>
<path d="M362.85 140.53C361.68 140.726 360.51 139.606 360.259 138.038C360.075 137.389 360.149 136.693 360.466 136.097C360.784 135.502 361.318 135.054 361.958 134.847C363.128 134.651 364.298 135.771 364.549 137.338C364.733 137.988 364.659 138.684 364.342 139.279C364.025 139.875 363.49 140.323 362.85 140.53V140.53Z" fill="white"/>
<path d="M296.406 159.566L349.199 190.191L375.052 175.186L322.287 144.561L296.406 159.566Z" fill="#444444"/>
</g>
<defs>
<clipPath id="clip0_81_4">
<rect width="109" height="124" fill="white" transform="translate(137 50)"/>
</clipPath>
<clipPath id="clip1_81_4">
<rect width="111" height="128" fill="white" transform="matrix(-1 0 0 1 111 75)"/>
</clipPath>
<clipPath id="clip2_81_4">
<rect width="219" height="223" fill="white" transform="matrix(-1 0 0 1 481 0)"/>
</clipPath>
</defs>
</svg>
