<svg width="30" height="18" viewBox="0 0 30 18" fill="none" xmlns="http://www.w3.org/2000/svg">
<path d="M29.3122 1.20668C29.5218 0.510519 29.3122 0 28.3211 0H25.0379C24.2025 0 23.8207 0.441652 23.6111 0.926719C23.6111 0.926719 21.9418 4.99739 19.5764 7.63682C18.8128 8.40484 18.464 8.64738 18.0478 8.64738C17.8397 8.64738 17.5373 8.40484 17.5373 7.70868V1.20668C17.5373 0.371287 17.2963 0 16.6001 0H11.441C10.92 0 10.6056 0.386258 10.6056 0.75455C10.6056 1.54503 11.7883 1.72768 11.9096 3.9554V8.78811C11.9096 9.84657 11.7195 10.0397 11.3003 10.0397C10.1879 10.0397 7.48112 5.95406 5.87471 1.27705C5.56181 0.368292 5.24592 0.00149773 4.40753 0.00149773H1.12584C0.18714 0.00149773 0 0.443149 0 0.928216C0 1.79954 1.11236 6.11125 5.18154 11.8138C7.89433 15.7078 11.7135 17.8187 15.1928 17.8187C17.2783 17.8187 17.5358 17.3501 17.5358 16.5417V13.5984C17.5358 12.6612 17.7349 12.4725 18.3951 12.4725C18.8802 12.4725 19.7156 12.7181 21.6634 14.5939C23.8881 16.8187 24.2564 17.8173 25.5065 17.8173H28.7882C29.7254 17.8173 30.194 17.3486 29.9245 16.4234C29.6295 15.5027 28.5666 14.1628 27.1563 12.5773C26.3898 11.6731 25.2445 10.6999 24.8956 10.2134C24.4091 9.58607 24.5498 9.30911 24.8956 8.75218C24.8971 8.75367 28.896 3.1215 29.3122 1.20668Z" fill="white"/>
</svg>
