<svg width="101" height="30" viewBox="0 0 101 30" fill="none" xmlns="http://www.w3.org/2000/svg">
<path d="M4.05953 29.9352H2.87956L1.1029 27.5342V29.9352H0.0637207V25.1981H1.1029V27.4921L2.85944 25.1981H3.96567L2.17895 27.4727L4.05953 29.9352Z" fill="#EF3125"/>
<path d="M9.12468 27.5602C9.12468 27.9252 9.07775 28.2579 8.98389 28.5581C8.89003 28.8562 8.747 29.1133 8.55481 29.3293C8.36485 29.5453 8.12349 29.7116 7.83074 29.8283C7.53798 29.9428 7.19159 30 6.79156 30C6.39153 30 6.04514 29.9428 5.75238 29.8283C5.45962 29.7116 5.21715 29.5453 5.02496 29.3293C4.835 29.1133 4.69309 28.8551 4.59923 28.5549C4.50537 28.2546 4.45844 27.9209 4.45844 27.5537C4.45844 27.0633 4.54112 26.6367 4.7065 26.2738C4.87411 25.9088 5.13111 25.6258 5.4775 25.4249C5.82389 25.224 6.26415 25.1236 6.79826 25.1236C7.33014 25.1236 7.76704 25.224 8.10897 25.4249C8.45312 25.6258 8.70789 25.9088 8.87327 26.2738C9.04087 26.6389 9.12468 27.0677 9.12468 27.5602ZM5.5479 27.5602C5.5479 27.8907 5.59036 28.1758 5.67528 28.4156C5.76244 28.6532 5.89764 28.8368 6.08089 28.9664C6.26415 29.0938 6.50104 29.1576 6.79156 29.1576C7.08655 29.1576 7.32567 29.0938 7.50893 28.9664C7.69218 28.8368 7.82515 28.6532 7.90784 28.4156C7.99276 28.1758 8.03522 27.8907 8.03522 27.5602C8.03522 27.0633 7.93912 26.6724 7.74693 26.3872C7.55474 26.1021 7.23852 25.9595 6.79826 25.9595C6.5055 25.9595 6.26638 26.0243 6.08089 26.1539C5.89764 26.2814 5.76244 26.465 5.67528 26.7048C5.59036 26.9424 5.5479 27.2275 5.5479 27.5602Z" fill="#EF3125"/>
<path d="M12.2154 29.9352L11.0354 26.2187H11.0053C11.0097 26.3073 11.0164 26.4412 11.0254 26.6205C11.0365 26.7976 11.0466 26.9867 11.0555 27.1875C11.0645 27.3884 11.0689 27.5699 11.0689 27.7319V29.9352H10.1404V25.1981H11.555L12.7149 28.8206H12.735L13.9652 25.1981H15.3799V29.9352H14.4111V27.693C14.4111 27.544 14.4133 27.3722 14.4178 27.1778C14.4245 26.9834 14.4323 26.7987 14.4412 26.6238C14.4502 26.4466 14.4569 26.3138 14.4614 26.2252H14.4312L13.1674 29.9352H12.2154Z" fill="#EF3125"/>
<path d="M16.6168 25.1981H17.5521V27.4856C17.5521 27.598 17.5498 27.7222 17.5454 27.8583C17.5431 27.9943 17.5387 28.1283 17.532 28.26C17.5275 28.3896 17.523 28.503 17.5186 28.6003C17.5141 28.6975 17.5096 28.7623 17.5051 28.7947H17.5253L19.788 25.1981H21.0316V29.9352H20.1064V27.6606C20.1064 27.5396 20.1087 27.4079 20.1131 27.2653C20.1176 27.1227 20.1232 26.9845 20.1299 26.8506C20.1388 26.7166 20.1467 26.6011 20.1534 26.5039C20.1601 26.4045 20.1645 26.3386 20.1668 26.3062H20.14L17.8672 29.9352H16.6168V25.1981Z" fill="#EF3125"/>
<path d="M24.3503 25.966C24.1514 25.966 23.9749 26.0038 23.8207 26.0794C23.6687 26.1529 23.5402 26.2598 23.4352 26.4002C23.3324 26.5406 23.2541 26.7102 23.2005 26.9089C23.1469 27.1076 23.1201 27.3312 23.1201 27.5796C23.1201 27.9144 23.1625 28.2006 23.2474 28.4382C23.3346 28.6737 23.4687 28.8541 23.6497 28.9793C23.8307 29.1025 24.0643 29.164 24.3503 29.164C24.5492 29.164 24.7481 29.1424 24.947 29.0992C25.1481 29.056 25.366 28.9945 25.6007 28.9145V29.757C25.3839 29.8434 25.1705 29.905 24.9604 29.9417C24.7503 29.9806 24.5146 30 24.2531 30C23.748 30 23.3324 29.8996 23.0061 29.6987C22.682 29.4956 22.4418 29.2126 22.2854 28.8497C22.1289 28.4847 22.0507 28.0591 22.0507 27.5731C22.0507 27.2145 22.101 26.8862 22.2016 26.5881C22.3021 26.29 22.4496 26.0319 22.644 25.8137C22.8385 25.5955 23.0787 25.4271 23.3648 25.3083C23.6508 25.1894 23.9793 25.13 24.3503 25.13C24.5939 25.13 24.8375 25.1603 25.0811 25.2208C25.3269 25.2791 25.5616 25.3601 25.785 25.4638L25.4498 26.2803C25.2666 26.1961 25.0822 26.1226 24.8967 26.06C24.7112 25.9973 24.5291 25.966 24.3503 25.966Z" fill="#EF3125"/>
<path d="M28.7283 25.966C28.5294 25.966 28.3528 26.0038 28.1986 26.0794C28.0467 26.1529 27.9182 26.2598 27.8131 26.4002C27.7103 26.5406 27.6321 26.7102 27.5785 26.9089C27.5248 27.1076 27.498 27.3312 27.498 27.5796C27.498 27.9144 27.5405 28.2006 27.6254 28.4382C27.7126 28.6737 27.8466 28.8541 28.0277 28.9793C28.2087 29.1025 28.4422 29.164 28.7283 29.164C28.9272 29.164 29.1261 29.1424 29.325 29.0992C29.5261 29.056 29.744 28.9945 29.9786 28.9145V29.757C29.7619 29.8434 29.5484 29.905 29.3384 29.9417C29.1283 29.9806 28.8925 30 28.6311 30C28.126 30 27.7103 29.8996 27.384 29.6987C27.06 29.4956 26.8198 29.2126 26.6633 28.8497C26.5069 28.4847 26.4287 28.0591 26.4287 27.5731C26.4287 27.2145 26.4789 26.8862 26.5795 26.5881C26.6801 26.29 26.8276 26.0319 27.022 25.8137C27.2164 25.5955 27.4567 25.4271 27.7427 25.3083C28.0288 25.1894 28.3573 25.13 28.7283 25.13C28.9719 25.13 29.2154 25.1603 29.459 25.2208C29.7049 25.2791 29.9395 25.3601 30.163 25.4638L29.8278 26.2803C29.6445 26.1961 29.4602 26.1226 29.2747 26.06C29.0892 25.9973 28.907 25.966 28.7283 25.966Z" fill="#EF3125"/>
<path d="M31.0245 25.1981H31.9598V27.4856C31.9598 27.598 31.9575 27.7222 31.9531 27.8583C31.9508 27.9943 31.9464 28.1283 31.9397 28.26C31.9352 28.3896 31.9307 28.503 31.9262 28.6003C31.9218 28.6975 31.9173 28.7623 31.9128 28.7947H31.933L34.1957 25.1981H35.4393V29.9352H34.5141V27.6606C34.5141 27.5396 34.5164 27.4079 34.5208 27.2653C34.5253 27.1227 34.5309 26.9845 34.5376 26.8506C34.5465 26.7166 34.5544 26.6011 34.5611 26.5039C34.5678 26.4045 34.5722 26.3386 34.5745 26.3062H34.5477L32.2749 29.9352H31.0245V25.1981Z" fill="#EF3125"/>
<path d="M41.1246 27.5602C41.1246 27.9252 41.0777 28.2579 40.9839 28.5581C40.89 28.8562 40.747 29.1133 40.5548 29.3293C40.3648 29.5453 40.1235 29.7116 39.8307 29.8283C39.5379 29.9428 39.1916 30 38.7915 30C38.3915 30 38.0451 29.9428 37.7523 29.8283C37.4596 29.7116 37.2171 29.5453 37.0249 29.3293C36.835 29.1133 36.6931 28.8551 36.5992 28.5549C36.5053 28.2546 36.4584 27.9209 36.4584 27.5537C36.4584 27.0633 36.5411 26.6367 36.7065 26.2738C36.8741 25.9088 37.1311 25.6258 37.4775 25.4249C37.8239 25.224 38.2641 25.1236 38.7982 25.1236C39.3301 25.1236 39.767 25.224 40.1089 25.4249C40.4531 25.6258 40.7079 25.9088 40.8732 26.2738C41.0408 26.6389 41.1246 27.0677 41.1246 27.5602ZM37.5479 27.5602C37.5479 27.8907 37.5903 28.1758 37.6752 28.4156C37.7624 28.6532 37.8976 28.8368 38.0809 28.9664C38.2641 29.0938 38.501 29.1576 38.7915 29.1576C39.0865 29.1576 39.3256 29.0938 39.5089 28.9664C39.6921 28.8368 39.8251 28.6532 39.9078 28.4156C39.9927 28.1758 40.0352 27.8907 40.0352 27.5602C40.0352 27.0633 39.9391 26.6724 39.7469 26.3872C39.5547 26.1021 39.2385 25.9595 38.7982 25.9595C38.5055 25.9595 38.2663 26.0243 38.0809 26.1539C37.8976 26.2814 37.7624 26.465 37.6752 26.7048C37.5903 26.9424 37.5479 27.2275 37.5479 27.5602Z" fill="#EF3125"/>
<path d="M46.1563 29.9352H45.1205V27.8907H43.1795V29.9352H42.1404V25.1981H43.1795V27.0547H45.1205V25.1981H46.1563V29.9352Z" fill="#EF3125"/>
<path d="M51.4125 29.9352H50.3767V27.8907H48.4358V29.9352H47.3966V25.1981H48.4358V27.0547H50.3767V25.1981H51.4125V29.9352Z" fill="#EF3125"/>
<path d="M52.6528 29.9352V25.1981H53.692V27.0158H54.0272C54.4809 27.0158 54.853 27.0774 55.1435 27.2005C55.4362 27.3236 55.653 27.4943 55.7938 27.7124C55.9346 27.9285 56.005 28.1758 56.005 28.4544C56.005 28.9232 55.8441 29.2872 55.5223 29.5464C55.2027 29.8056 54.6932 29.9352 53.9937 29.9352H52.6528ZM53.692 29.1122H53.9635C54.2697 29.1122 54.511 29.0636 54.6876 28.9664C54.8641 28.867 54.9524 28.6964 54.9524 28.4544C54.9524 28.286 54.9122 28.1574 54.8317 28.0689C54.7513 27.9803 54.634 27.9198 54.4798 27.8874C54.3256 27.855 54.1378 27.8388 53.9166 27.8388H53.692V29.1122ZM56.6017 29.9352V25.1981H57.6375V29.9352H56.6017Z" fill="#EF3125"/>
<path d="M58.8745 25.1981H59.8097V27.4856C59.8097 27.598 59.8075 27.7222 59.803 27.8583C59.8008 27.9943 59.7963 28.1283 59.7896 28.26C59.7851 28.3896 59.7807 28.503 59.7762 28.6003C59.7717 28.6975 59.7673 28.7623 59.7628 28.7947H59.7829L62.0456 25.1981H63.2893V29.9352H62.3641V27.6606C62.3641 27.5396 62.3663 27.4079 62.3708 27.2653C62.3753 27.1227 62.3809 26.9845 62.3876 26.8506C62.3965 26.7166 62.4043 26.6011 62.411 26.5039C62.4177 26.4045 62.4222 26.3386 62.4244 26.3062H62.3976L60.1248 29.9352H58.8745V25.1981ZM62.8233 23.6396C62.7988 23.8685 62.7317 24.0705 62.6222 24.2455C62.5127 24.4204 62.3418 24.5565 62.1093 24.6537C61.8769 24.7509 61.564 24.7995 61.1707 24.7995C60.7662 24.7995 60.4511 24.7531 60.2254 24.6602C59.9997 24.5652 59.8388 24.4313 59.7427 24.2584C59.6466 24.0835 59.5885 23.8772 59.5684 23.6396H60.4835C60.5036 23.8837 60.5673 24.0457 60.6746 24.1256C60.7819 24.2034 60.9539 24.2422 61.1908 24.2422C61.3875 24.2422 61.5484 24.199 61.6735 24.1126C61.7987 24.0262 61.8736 23.8685 61.8981 23.6396H62.8233Z" fill="#EF3125"/>
<path d="M68.3846 29.9352L67.2047 26.2187H67.1745C67.179 26.3073 67.1857 26.4412 67.1946 26.6205C67.2058 26.7976 67.2158 26.9867 67.2248 27.1875C67.2337 27.3884 67.2382 27.5699 67.2382 27.7319V29.9352H66.3096V25.1981H67.7242L68.8841 28.8206H68.9042L70.1345 25.1981H71.5491V29.9352H70.5803V27.693C70.5803 27.544 70.5825 27.3722 70.587 27.1778C70.5937 26.9834 70.6015 26.7987 70.6105 26.6238C70.6194 26.4466 70.6261 26.3138 70.6306 26.2252H70.6004L69.3366 29.9352H68.3846Z" fill="#EF3125"/>
<path d="M75.7862 29.9352L75.4309 28.8076H73.6442L73.2889 29.9352H72.1692L73.899 25.1786H75.1694L76.9059 29.9352H75.7862ZM75.1829 27.9652L74.8275 26.8635C74.8052 26.7901 74.775 26.6961 74.737 26.5816C74.7013 26.465 74.6644 26.3473 74.6264 26.2285C74.5906 26.1075 74.5616 26.0027 74.5392 25.9142C74.5169 26.0027 74.4856 26.1129 74.4454 26.2447C74.4074 26.3743 74.3705 26.4974 74.3348 26.614C74.299 26.7307 74.2733 26.8138 74.2577 26.8635L73.9057 27.9652H75.1829Z" fill="#EF3125"/>
<path d="M80.6235 25.1981V26.0276H78.5652V29.9352H77.526V25.1981H80.6235Z" fill="#EF3125"/>
<path d="M84.3813 29.9352L84.0259 28.8076H82.2392L81.8839 29.9352H80.7642L82.494 25.1786H83.7645L85.5009 29.9352H84.3813ZM83.7779 27.9652L83.4225 26.8635C83.4002 26.7901 83.37 26.6961 83.332 26.5816C83.2963 26.465 83.2594 26.3473 83.2214 26.2285C83.1856 26.1075 83.1566 26.0027 83.1342 25.9142C83.1119 26.0027 83.0806 26.1129 83.0404 26.2447C83.0024 26.3743 82.9655 26.4974 82.9298 26.614C82.894 26.7307 82.8683 26.8138 82.8527 26.8635L82.5007 27.9652H83.7779Z" fill="#EF3125"/>
<path d="M89.5067 26.3062C89.5067 26.6238 89.3894 26.8797 89.1548 27.0741C88.9201 27.2685 88.6229 27.3906 88.2631 27.4403V27.4597C88.71 27.5029 89.0542 27.6228 89.2956 27.8194C89.5369 28.0159 89.6576 28.2719 89.6576 28.5873C89.6576 28.8638 89.5794 29.109 89.4229 29.3228C89.2665 29.5345 89.0352 29.7008 88.729 29.8218C88.4229 29.9406 88.0441 30 87.5927 30C87.2217 30 86.892 29.9784 86.6038 29.9352C86.3177 29.8898 86.0696 29.8261 85.8596 29.744V28.9016C86.0026 28.9664 86.1624 29.0226 86.3389 29.0701C86.5177 29.1154 86.6987 29.1511 86.882 29.177C87.0652 29.2008 87.2351 29.2126 87.3915 29.2126C87.8251 29.2126 88.1391 29.1522 88.3335 29.0312C88.5301 28.9102 88.6285 28.7385 88.6285 28.516C88.6285 28.2892 88.4866 28.1239 88.2027 28.0203C87.9189 27.9166 87.5368 27.8647 87.0563 27.8647H86.5971V27.0806H87.0094C87.3982 27.0806 87.6999 27.0569 87.9145 27.0093C88.1312 26.9597 88.2821 26.8894 88.367 26.7987C88.4542 26.7058 88.4977 26.5946 88.4977 26.465C88.4977 26.303 88.4229 26.1745 88.2731 26.0794C88.1234 25.9822 87.901 25.9336 87.6061 25.9336C87.3513 25.9336 87.1133 25.9692 86.892 26.0405C86.6708 26.1097 86.4641 26.2025 86.2719 26.3192L85.8193 25.6485C85.987 25.5426 86.1657 25.4508 86.3557 25.3731C86.5479 25.2953 86.758 25.2359 86.9859 25.1948C87.2139 25.1516 87.4686 25.13 87.7502 25.13C88.1189 25.13 88.4341 25.1808 88.6955 25.2823C88.957 25.3839 89.157 25.5232 89.2956 25.7003C89.4363 25.8753 89.5067 26.0772 89.5067 26.3062Z" fill="#EF3125"/>
<path d="M90.5727 25.1981H91.508V27.4856C91.508 27.598 91.5058 27.7222 91.5013 27.8583C91.4991 27.9943 91.4946 28.1283 91.4879 28.26C91.4834 28.3896 91.479 28.503 91.4745 28.6003C91.47 28.6975 91.4655 28.7623 91.4611 28.7947H91.4812L93.7439 25.1981H94.9876V29.9352H94.0624V27.6606C94.0624 27.5396 94.0646 27.4079 94.0691 27.2653C94.0735 27.1227 94.0791 26.9845 94.0858 26.8506C94.0948 26.7166 94.1026 26.6011 94.1093 26.5039C94.116 26.4045 94.1205 26.3386 94.1227 26.3062H94.0959L91.8231 29.9352H90.5727V25.1981Z" fill="#EF3125"/>
<path d="M100.24 29.9352H99.2046V27.8907H97.2637V29.9352H96.2245V25.1981H97.2637V27.0547H99.2046V25.1981H100.24V29.9352Z" fill="#EF3125"/>
<rect x="0.0637207" y="20.9894" width="100.177" height="1.59011" fill="#EF3125"/>
<path d="M0 0H10.6855C12.4664 0 13.7555 0.407068 14.5527 1.2212C15.3668 2.01838 15.7739 3.30742 15.7739 5.08834V7.63251C15.7739 9.41343 15.3668 10.711 14.5527 11.5251C13.7555 12.3223 12.4664 12.7209 10.6855 12.7209H4.57951V17.8092H0V0ZM11.1944 5.08834C11.1944 4.07067 10.6855 3.56184 9.66785 3.56184H4.57951V9.15902H9.66785C10.6855 9.15902 11.1944 8.65018 11.1944 7.63251V5.08834Z" fill="#1E1E1E"/>
<path d="M32.1828 17.8092H18.0626V0H32.1828V3.56184H22.6421V6.99647H30.1474V10.5583H22.6421V14.2474H32.1828V17.8092Z" fill="#1E1E1E"/>
<path d="M33.1945 14.1201C37.5196 14.3746 40.5726 14.5018 42.3535 14.5018C42.7436 14.5018 43.0489 14.3915 43.2694 14.171C43.5068 13.9336 43.6256 13.6198 43.6256 13.2297V12.212C43.6256 11.1944 43.1167 10.6855 42.0991 10.6855H35.9931V7.12368H41.5902C42.6079 7.12368 43.1167 6.61485 43.1167 5.59718V5.08834C43.1167 4.07067 42.6079 3.56184 41.5902 3.56184H33.4489V0H42.8623C44.5245 0 45.7457 0.381626 46.5259 1.14488C47.3061 1.89117 47.6962 3.03604 47.6962 4.57951C47.6962 5.59718 47.4588 6.42827 46.9839 7.0728C46.5259 7.70036 45.9153 8.14135 45.1521 8.39577C46.5259 8.76891 47.4588 9.68481 47.9507 11.1435C48.1203 11.6693 48.2051 12.2799 48.2051 12.9753V13.2297C48.2051 14.8919 47.815 16.1131 47.0348 16.8933C46.2545 17.6735 45.0333 18.0636 43.3712 18.0636C40.5386 18.0636 37.1464 17.894 33.1945 17.5548V14.1201Z" fill="#1E1E1E"/>
<path d="M64.606 17.8092H50.4859V0H64.606V3.56184H55.0654V6.99647H62.5707V10.5583H55.0654V14.2474H64.606V17.8092Z" fill="#1E1E1E"/>
<path d="M66.6354 0H77.3209C79.1018 0 80.3909 0.407068 81.1881 1.2212C82.0022 2.01838 82.4093 3.30742 82.4093 5.08834V7.63251C82.4093 9.41343 82.0022 10.711 81.1881 11.5251C80.3909 12.3223 79.1018 12.7209 77.3209 12.7209H71.2149V17.8092H66.6354V0ZM77.8298 5.08834C77.8298 4.07067 77.3209 3.56184 76.3033 3.56184H71.2149V9.15902H76.3033C77.3209 9.15902 77.8298 8.65018 77.8298 7.63251V5.08834Z" fill="#1E1E1E"/>
<path d="M84.698 0H94.8747C96.5369 0 97.7581 0.381626 98.5383 1.14488C99.3185 1.89117 99.7086 3.03604 99.7086 4.57951C99.7086 5.59718 99.4881 6.42827 99.0471 7.0728C98.6062 7.70036 98.0634 8.14135 97.4189 8.39577C98.7927 8.76891 99.7256 9.68481 100.217 11.1435C100.387 11.6693 100.472 12.2799 100.472 12.9753C100.472 14.6375 100.082 15.8587 99.3016 16.6389C98.5214 17.4191 97.3001 17.8092 95.638 17.8092H84.698V0ZM95.8924 12.212C95.8924 11.1944 95.3835 10.6855 94.3659 10.6855H89.2775V14.2474H94.3659C95.3835 14.2474 95.8924 13.7385 95.8924 12.7209V12.212ZM95.1291 5.08834C95.1291 4.07067 94.6203 3.56184 93.6026 3.56184H89.2775V7.12368H93.6026C94.6203 7.12368 95.1291 6.61485 95.1291 5.59718V5.08834Z" fill="#1E1E1E"/>
</svg>
